<?xml version="1.0" encoding="UTF-8"?>
<svg id="Layer_1" xmlns="http://www.w3.org/2000/svg" width="600" height="295" version="1.1" viewBox="0 0 600 295">
  <!-- Generator: Adobe Illustrator 29.8.4, SVG Export Plug-In . SVG Version: 2.1.1 Build 6)  -->
  <rect x="0" y="139.6" width="600" height="155" rx="77.5" ry="77.5" fill="#feb914"/>
  <g>
    <path d="M84.4,214.4h-16.8v12.6h19.6v5.7h-26.7v-40.8h26.5v5.7h-19.4v11.3h16.8v5.6Z" fill="#043d5c"/>
    <path d="M98.8,202.3l.2,3.2c1-1.2,2.2-2.1,3.7-2.7,1.4-.7,3.1-1,5.1-1s3.5.4,5,1.1c1.5.7,2.6,1.9,3.4,3.5,1-1.4,2.3-2.5,3.8-3.4,1.5-.8,3.4-1.3,5.5-1.3s3,.2,4.2.6c1.2.4,2.3,1.1,3.1,2s1.5,2.1,2,3.5c.5,1.4.7,3.1.7,5.1v19.6h-6.8v-19.7c0-1.1-.1-2-.4-2.8s-.6-1.3-1.1-1.7c-.5-.4-1-.7-1.7-.9-.7-.2-1.4-.3-2.3-.3-1.6,0-2.8.4-3.8,1.2-1,.8-1.7,1.9-2.1,3.3,0,0,0,.2,0,.3s0,.2,0,.3v20.2h-6.8v-19.6c0-1.1-.1-2-.4-2.7-.3-.7-.6-1.3-1.1-1.8-.5-.4-1.1-.8-1.7-1-.7-.2-1.4-.3-2.3-.3-1.5,0-2.7.3-3.6.9-.9.6-1.7,1.4-2.2,2.4v22h-6.8v-30.3h6.4Z" fill="#043d5c"/>
    <path d="M155.6,233.2c-2.2,0-4.3-.4-6.1-1.1-1.8-.7-3.3-1.8-4.6-3.1-1.3-1.3-2.2-2.9-2.9-4.7-.7-1.8-1-3.7-1-5.8v-1.1c0-2.4.4-4.6,1.1-6.5.7-1.9,1.7-3.6,2.9-4.9,1.2-1.4,2.7-2.4,4.4-3.1,1.7-.7,3.5-1.1,5.4-1.1s4.1.4,5.7,1.1c1.6.7,3,1.8,4,3.1s1.9,2.9,2.4,4.7.8,3.8.8,6v2.9h-19.8c0,1.2.3,2.3.7,3.2.4,1,.9,1.8,1.6,2.6.7.7,1.5,1.3,2.5,1.7.9.4,2,.6,3.2.6s3.1-.3,4.4-1c1.2-.7,2.3-1.6,3.2-2.8l3.7,3.5c-.5.7-1.1,1.4-1.8,2.1-.7.7-1.6,1.3-2.5,1.8-1,.5-2.1,1-3.3,1.3-1.2.3-2.6.5-4.1.5ZM154.8,207.2c-1.9,0-3.4.7-4.5,2s-1.9,3.1-2.2,5.5h13v-.5c0-.9-.2-1.8-.4-2.6-.2-.8-.6-1.6-1.1-2.2-.5-.6-1.1-1.2-1.9-1.5-.8-.4-1.7-.6-2.8-.6Z" fill="#043d5c"/>
    <path d="M188.9,208.5c-.4,0-.9-.1-1.4-.2-.5,0-.9,0-1.4,0-1.6,0-3,.3-4,1-1,.6-1.8,1.5-2.3,2.6v20.7h-6.8v-30.3h6.5l.2,3.4c.8-1.2,1.7-2.2,2.8-2.9,1.1-.7,2.5-1.1,4-1.1s.8,0,1.3.1.9.2,1.1.3v6.4Z" fill="#043d5c"/>
    <path d="M191.5,217.3c0-2.3.3-4.4.8-6.3s1.4-3.5,2.4-4.9c1.1-1.4,2.3-2.4,3.8-3.2s3.2-1.1,5-1.1,3.4.3,4.7.9c1.3.6,2.5,1.5,3.4,2.7l.3-3.1h6.1v29.5c0,2-.3,3.8-1,5.4-.7,1.6-1.6,2.9-2.8,4-1.2,1.1-2.7,1.9-4.3,2.5-1.7.6-3.5.9-5.6.9s-1.8,0-2.8-.3c-1-.2-2.1-.5-3.1-.9s-2-.9-3-1.6c-1-.6-1.8-1.4-2.4-2.3l3.2-4.1c1.1,1.3,2.3,2.3,3.7,2.9,1.3.6,2.7.9,4.1.9,2.3,0,4-.6,5.4-1.8,1.3-1.2,2-3,2-5.4v-2c-1,1.1-2.1,1.9-3.4,2.4-1.3.6-2.8.8-4.5.8s-3.5-.4-5-1.2c-1.5-.8-2.8-1.8-3.8-3.2-1.1-1.4-1.9-3-2.4-4.9s-.8-3.9-.8-6.1v-.6ZM198.3,217.8c0,1.3.1,2.6.4,3.8.3,1.2.7,2.2,1.3,3.1s1.3,1.6,2.2,2.1c.9.5,1.9.8,3.2.8s2.8-.3,3.8-1c1-.6,1.8-1.5,2.4-2.6v-13.3c-.6-1.1-1.4-1.9-2.4-2.5s-2.2-.9-3.7-.9-2.3.3-3.2.8c-.9.5-1.6,1.2-2.2,2.1s-1,1.9-1.3,3.2c-.3,1.2-.4,2.5-.4,3.9v.6Z" fill="#043d5c"/>
    <path d="M238.6,233.2c-2.2,0-4.3-.4-6.1-1.1-1.8-.7-3.3-1.8-4.6-3.1-1.3-1.3-2.2-2.9-2.9-4.7-.7-1.8-1-3.7-1-5.8v-1.1c0-2.4.4-4.6,1.1-6.5.7-1.9,1.7-3.6,2.9-4.9,1.2-1.4,2.7-2.4,4.4-3.1,1.7-.7,3.5-1.1,5.4-1.1s4.1.4,5.7,1.1c1.6.7,3,1.8,4,3.1s1.9,2.9,2.4,4.7.8,3.8.8,6v2.9h-19.8c0,1.2.3,2.3.7,3.2.4,1,.9,1.8,1.6,2.6.7.7,1.5,1.3,2.5,1.7.9.4,2,.6,3.2.6s3.1-.3,4.4-1c1.2-.7,2.3-1.6,3.2-2.8l3.7,3.5c-.5.7-1.1,1.4-1.8,2.1-.7.7-1.6,1.3-2.5,1.8-1,.5-2.1,1-3.3,1.3-1.2.3-2.6.5-4.1.5ZM237.8,207.2c-1.9,0-3.4.7-4.5,2s-1.9,3.1-2.2,5.5h13v-.5c0-.9-.2-1.8-.4-2.6-.2-.8-.6-1.6-1.1-2.2-.5-.6-1.1-1.2-1.9-1.5-.8-.4-1.7-.6-2.8-.6Z" fill="#043d5c"/>
    <path d="M262.3,202.3l.2,3.5c1.1-1.3,2.3-2.3,3.8-3,1.5-.7,3.2-1.1,5-1.1s2.8.2,4,.6c1.2.4,2.2,1.1,3,1.9.8.9,1.5,2.1,1.9,3.5.5,1.4.7,3.2.7,5.2v19.6h-6.8v-19.6c0-1-.1-1.9-.3-2.6-.2-.7-.6-1.3-1-1.8s-1-.8-1.7-1c-.7-.2-1.4-.3-2.3-.3-1.4,0-2.6.3-3.7,1-1,.7-1.9,1.6-2.5,2.7v21.6h-6.8v-30.3h6.4Z" fill="#043d5c"/>
    <path d="M300.4,227.8c.8,0,1.6-.1,2.3-.4.7-.3,1.3-.6,1.9-1.1.5-.5,1-1,1.3-1.6.3-.6.5-1.3.5-2.1h6.4c0,1.5-.4,2.8-1.1,4.1s-1.6,2.4-2.7,3.4c-1.1,1-2.4,1.7-3.9,2.3-1.5.6-3.1.8-4.7.8s-4.4-.4-6.1-1.2c-1.7-.8-3.2-1.9-4.3-3.3s-2-3-2.6-4.8c-.6-1.8-.8-3.8-.8-5.9v-1c0-2.1.3-4,.8-5.9s1.4-3.5,2.6-4.9,2.6-2.5,4.3-3.3c1.7-.8,3.7-1.2,6.1-1.2s3.5.3,5,.8,2.8,1.3,3.9,2.4,1.9,2.2,2.5,3.6c.6,1.4.9,2.9,1,4.6h-6.4c0-.8-.2-1.6-.5-2.3-.3-.7-.7-1.4-1.2-1.9s-1.1-1-1.9-1.3c-.7-.3-1.6-.5-2.5-.5-1.4,0-2.5.3-3.4.9-.9.6-1.6,1.3-2.1,2.2-.5.9-.9,2-1.1,3.1-.2,1.2-.3,2.4-.3,3.6v1c0,1.2,0,2.4.3,3.6.2,1.2.6,2.2,1.1,3.1.5.9,1.2,1.7,2.1,2.2.9.6,2,.8,3.4.8Z" fill="#043d5c"/>
    <path d="M328.6,222.9l6.2-20.6h7.3l-12,34.9c-.3.8-.6,1.6-1.1,2.5-.5.9-1.1,1.7-1.8,2.5-.7.8-1.6,1.4-2.7,1.9s-2.3.8-3.8.8-1.2,0-1.7-.2c-.6-.1-1.1-.2-1.6-.4v-5.3c.2,0,.4,0,.7,0,.3,0,.5,0,.6,0,.8,0,1.6,0,2.2-.2.6-.1,1.2-.4,1.6-.7.5-.3.9-.7,1.2-1.3.3-.5.6-1.2.9-1.9l1-2.6-10.6-30.2h7.3l6.4,20.6Z" fill="#043d5c"/>
    <path d="M393.2,232.6h-7.1v-18.1h-18.2v18.1h-7.1v-40.8h7.1v17h18.2v-17h7.1v40.8Z" fill="#043d5c"/>
    <path d="M399.7,217.2c0-2.2.3-4.2,1-6.1s1.6-3.5,2.8-4.9c1.2-1.4,2.7-2.5,4.4-3.2,1.7-.8,3.7-1.2,5.9-1.2s4.2.4,6,1.2c1.8.8,3.2,1.9,4.4,3.2,1.2,1.4,2.1,3,2.8,4.9s1,3.9,1,6.1v.6c0,2.2-.3,4.2-1,6.1-.6,1.9-1.6,3.5-2.8,4.9-1.2,1.4-2.7,2.4-4.4,3.2-1.7.8-3.7,1.2-5.9,1.2s-4.2-.4-6-1.2c-1.7-.8-3.2-1.8-4.4-3.2-1.2-1.4-2.1-3-2.8-4.9-.6-1.9-1-3.9-1-6.1v-.6ZM406.5,217.8c0,1.4.1,2.7.4,3.9s.7,2.3,1.3,3.2c.6.9,1.4,1.6,2.3,2.1.9.5,2,.8,3.3.8s2.3-.3,3.3-.8c.9-.5,1.7-1.2,2.3-2.1.6-.9,1-2,1.3-3.2.3-1.2.4-2.5.4-3.9v-.6c0-1.3-.1-2.6-.4-3.8-.3-1.2-.7-2.3-1.3-3.2s-1.4-1.6-2.3-2.2c-.9-.5-2-.8-3.3-.8s-2.4.3-3.3.8c-.9.5-1.7,1.3-2.3,2.2s-1,2-1.3,3.2c-.3,1.2-.4,2.5-.4,3.8v.6Z" fill="#043d5c"/>
    <path d="M442.1,195v7.4h5.4v5h-5.4v16.9c0,.7,0,1.3.2,1.7.1.4.4.8.6,1s.6.4,1,.5c.4,0,.8.1,1.3.1s.9,0,1.4,0,.8-.1,1-.2v5.3c-.5.1-1.2.3-1.9.4-.7.1-1.6.2-2.6.2s-2.2-.2-3.1-.4c-1-.3-1.8-.8-2.5-1.5-.7-.7-1.2-1.5-1.6-2.6-.4-1.1-.6-2.4-.6-4v-17.3h-5v-5h5v-7.4h6.8Z" fill="#043d5c"/>
    <path d="M459.9,232.6h-6.8v-43h6.8v43Z" fill="#043d5c"/>
    <path d="M467.4,194.4c0-1,.3-1.9,1-2.6.7-.7,1.6-1,2.8-1s2.2.3,2.9,1c.7.7,1,1.6,1,2.6s-.3,1.9-1,2.6c-.7.7-1.6,1-2.9,1s-2.2-.3-2.8-1-1-1.5-1-2.6ZM474.6,232.6h-6.8v-30.3h6.8v30.3Z" fill="#043d5c"/>
    <path d="M488.3,202.3l.2,3.5c1.1-1.3,2.3-2.3,3.8-3,1.5-.7,3.2-1.1,5-1.1s2.8.2,4,.6c1.2.4,2.2,1.1,3,1.9.8.9,1.5,2.1,1.9,3.5.5,1.4.7,3.2.7,5.2v19.6h-6.8v-19.6c0-1-.1-1.9-.3-2.6-.2-.7-.6-1.3-1-1.8s-1-.8-1.7-1c-.7-.2-1.4-.3-2.3-.3-1.4,0-2.6.3-3.7,1-1,.7-1.9,1.6-2.5,2.7v21.6h-6.8v-30.3h6.4Z" fill="#043d5c"/>
    <path d="M527.3,233.2c-2.2,0-4.3-.4-6.1-1.1-1.8-.7-3.3-1.8-4.6-3.1-1.3-1.3-2.2-2.9-2.9-4.7-.7-1.8-1-3.7-1-5.8v-1.1c0-2.4.4-4.6,1.1-6.5.7-1.9,1.7-3.6,2.9-4.9,1.2-1.4,2.7-2.4,4.4-3.1,1.7-.7,3.5-1.1,5.4-1.1s4.1.4,5.7,1.1c1.6.7,3,1.8,4,3.1s1.9,2.9,2.4,4.7.8,3.8.8,6v2.9h-19.8c0,1.2.3,2.3.7,3.2.4,1,.9,1.8,1.6,2.6.7.7,1.5,1.3,2.5,1.7.9.4,2,.6,3.2.6s3.1-.3,4.4-1c1.2-.7,2.3-1.6,3.2-2.8l3.7,3.5c-.5.7-1.1,1.4-1.8,2.1-.7.7-1.6,1.3-2.5,1.8-1,.5-2.1,1-3.3,1.3-1.2.3-2.6.5-4.1.5ZM526.4,207.2c-1.9,0-3.4.7-4.5,2s-1.9,3.1-2.2,5.5h13v-.5c0-.9-.2-1.8-.4-2.6-.2-.8-.6-1.6-1.1-2.2-.5-.6-1.1-1.2-1.9-1.5-.8-.4-1.7-.6-2.8-.6Z" fill="#043d5c"/>
  </g>
  <circle cx="300" cy="85.5" r="85.1" fill="#fff"/>
  <g>
    <path d="M289.9,106.7c-.3,0-.6,0-.9-.3-.7-.4-.9-1.3-.6-2.1l7.7-17.2-13.3-1c-.6,0-1.2-.5-1.4-1s-.1-1.3.3-1.7l27-29.3c.6-.6,1.4-.7,2.1-.3.7.4.9,1.3.6,2.1l-7.6,17.2,13.3,1c.6,0,1.2.5,1.4,1s.1,1.3-.3,1.7l-27,29.3c-.3.4-.8.5-1.2.5ZM286.4,83.1l12.2.9c.5,0,1,.3,1.3.8.3.5.3,1,0,1.5l-4.5,10.1,17.8-19.3-12.2-.9c-.5,0-1-.3-1.3-.8-.3-.5-.3-1,0-1.5l4.5-10.1-17.8,19.3Z" fill="#043d5c"/>
    <g>
      <path d="M338,110.4l-2.8-31.6c-.5-19-16.1-34.3-35.2-34.3s-34.7,15.3-35.2,34.3l-2.8,31.6c-4.4.3-7.9,3.9-7.9,8.4s0,0,0,0c0,0,0,0,0,0,0,4.6,3.8,8.4,8.4,8.4h75c4.6,0,8.4-3.8,8.4-8.4s0,0,0,0c0,0,0,0,0,0,0-4.4-3.5-8.1-7.8-8.4ZM300,48.6c16.6,0,30.1,13,31.1,29.3l2.9,32.4h-68l2.9-32.7c1.1-16.2,14.6-29,31.1-29ZM341.8,118.8s0,0,0,0h0s0,0,0,0c0,2.4-2,4.4-4.4,4.4h-75c-2.4,0-4.4-2-4.4-4.4s0,0,0,0h0s0,0,0,0,0,0,0,0h0s0,0,0,0c0-2.3,1.8-4.2,4.1-4.3h3.5s68.7,0,68.7,0h0s3.4,0,3.4,0c2.3.1,4.1,2,4.1,4.3s0,0,0,0h0s0,0,0,0Z" fill="#043d5c"/>
      <path d="M300,38.9c1.1,0,2-.9,2-2v-14c0-1.1-.9-2-2-2s-2,.9-2,2v14c0,1.1.9,2,2,2Z" fill="#043d5c"/>
      <path d="M281.6,44.7c.3.8,1.1,1.2,1.9,1.2s.5,0,.8-.2c1-.4,1.5-1.6,1.1-2.6l-3.1-7.6c-.4-1-1.6-1.5-2.6-1.1-1,.4-1.5,1.6-1.1,2.6l3.1,7.6Z" fill="#043d5c"/>
      <path d="M251.6,66.1l7.6,3.1c.3.1.5.2.8.2.8,0,1.5-.5,1.9-1.2.4-1,0-2.2-1.1-2.6l-7.6-3.1c-1-.4-2.2,0-2.6,1.1-.4,1,0,2.2,1.1,2.6Z" fill="#043d5c"/>
      <path d="M338.2,68.1c.3.8,1.1,1.2,1.9,1.2s.5,0,.8-.2l7.6-3.1c1-.4,1.5-1.6,1.1-2.6-.4-1-1.6-1.5-2.6-1.1l-7.6,3.1c-1,.4-1.5,1.6-1.1,2.6Z" fill="#043d5c"/>
      <path d="M315.8,45.7c.3.1.5.2.8.2.8,0,1.5-.5,1.9-1.2l3.1-7.6c.4-1,0-2.2-1.1-2.6-1-.4-2.2,0-2.6,1.1l-3.1,7.6c-.4,1,0,2.2,1.1,2.6Z" fill="#043d5c"/>
      <path d="M264.7,52.3c.4.4.9.6,1.4.6s1-.2,1.4-.6c.8-.8.8-2.1,0-2.9l-9.9-9.9c-.8-.8-2.1-.8-2.9,0-.8.8-.8,2.1,0,2.9l9.9,9.9Z" fill="#043d5c"/>
      <path d="M259.4,83.8c0-1.1-.9-2-2-2h-14c-1.1,0-2,.9-2,2s.9,2,2,2h14c1.1,0,2-.9,2-2Z" fill="#043d5c"/>
      <path d="M356.5,81.8h-14c-1.1,0-2,.9-2,2s.9,2,2,2h14c1.1,0,2-.9,2-2s-.9-2-2-2Z" fill="#043d5c"/>
      <path d="M257.9,101.3c-.2-1.1-1.2-1.9-2.3-1.7l-9.1,1.3c-1.1.2-1.9,1.2-1.7,2.3.2,1.1,1.2,1.9,2.3,1.7l9.1-1.3c1.1-.2,1.9-1.2,1.7-2.3Z" fill="#043d5c"/>
      <path d="M333.9,52.9c.5,0,1-.2,1.4-.6l9.9-9.9c.8-.8.8-2.1,0-2.9-.8-.8-2.1-.8-2.9,0l-9.9,9.9c-.8.8-.8,2.1,0,2.9.4.4.9.6,1.4.6Z" fill="#043d5c"/>
      <path d="M353.4,100.8l-9.1-1.3c-1.1-.2-2.1.6-2.3,1.7-.2,1.1.6,2.1,1.7,2.3l9.1,1.3c1.1.2,2.1-.6,2.3-1.7.2-1.1-.6-2.1-1.7-2.3Z" fill="#043d5c"/>
    </g>
  </g>
</svg>