<?xml version="1.0" encoding="UTF-8"?>
<svg id="Layer_1" xmlns="http://www.w3.org/2000/svg" width="280" height="280" version="1.1" viewBox="0 0 280 280">
  <!-- Generator: Adobe Illustrator 29.8.4, SVG Export Plug-In . SVG Version: 2.1.1 Build 6)  -->
  <g>
    <path d="M96.6,210.5h-17.7v14.5h20.5v4.4h-25.9v-40.8h25.6v4.4h-20.3v13.1h17.7v4.4Z" fill="#043d5d"/>
    <path d="M110.2,199.1v3.4c1.2-1.2,2.5-2.2,3.9-2.9,1.5-.7,3.2-1,5.2-1s3.7.4,5.2,1.2c1.5.8,2.7,2,3.5,3.7,1-1.5,2.3-2.6,3.9-3.5,1.6-.9,3.5-1.3,5.7-1.3s3.1.2,4.3.6,2.3,1.1,3.2,2c.9.9,1.5,2,2,3.4.4,1.4.7,3,.7,4.9v19.9h-5.2v-19.9c0-1.3-.2-2.3-.5-3.2-.3-.8-.7-1.5-1.3-2-.6-.5-1.2-.9-2-1-.8-.2-1.7-.3-2.7-.3s-2,.2-2.8.5c-.8.3-1.5.8-2.1,1.4-.6.6-1.1,1.2-1.4,2-.3.8-.6,1.6-.7,2.5v20.1h-5.2v-19.9c0-1.2-.2-2.2-.5-3-.3-.8-.7-1.5-1.3-2-.6-.5-1.2-.9-2-1.1-.8-.2-1.7-.4-2.7-.4-1.8,0-3.3.4-4.5,1.2-1.1.8-2,1.8-2.5,3.1v22.1h-5.2v-30.3h4.9Z" fill="#043d5d"/>
    <path d="M174.4,229.4c-.2-.4-.3-.8-.4-1.4-.1-.6-.2-1.2-.3-1.8-.5.5-1,1-1.6,1.4-.6.5-1.3.9-2,1.2s-1.5.6-2.3.8c-.8.2-1.7.3-2.7.3-1.6,0-3-.2-4.2-.7-1.3-.5-2.3-1.1-3.2-1.9s-1.6-1.8-2.1-2.8-.7-2.3-.7-3.5.3-3.1,1-4.3c.6-1.2,1.5-2.3,2.7-3.1,1.2-.8,2.6-1.5,4.3-1.9,1.7-.4,3.6-.6,5.6-.6h5.2v-2.4c0-1.8-.5-3.3-1.6-4.3-1.1-1.1-2.7-1.6-4.8-1.6s-1.9.1-2.7.4-1.5.6-2.1,1c-.6.4-1,.9-1.3,1.5-.3.6-.5,1.2-.5,1.8h-5.2c0-1.1.3-2.2.9-3.2.6-1.1,1.4-2,2.4-2.9,1-.8,2.3-1.5,3.8-2.1,1.5-.5,3.1-.8,5-.8s3.2.2,4.6.6c1.4.4,2.6,1.1,3.6,1.9s1.8,1.9,2.3,3.2c.6,1.3.8,2.8.8,4.5v14.1c0,1,0,2.1.3,3.2.2,1.1.4,2.1.8,2.9v.4h-5.4ZM165.8,225.4c.9,0,1.8-.1,2.6-.4.8-.3,1.6-.6,2.2-1,.7-.4,1.3-.9,1.8-1.4s.9-1.1,1.2-1.7v-6.2h-4.3c-3,0-5.3.5-6.9,1.4-1.6.9-2.4,2.3-2.4,4.2s.1,1.4.4,2,.6,1.2,1.1,1.6c.5.5,1.1.8,1.8,1.1.7.3,1.6.4,2.5.4Z" fill="#043d5d"/>
    <path d="M186.9,191c0-.8.3-1.5.8-2.1s1.3-.9,2.3-.9,1.8.3,2.3.9c.5.6.8,1.3.8,2.1s-.3,1.5-.8,2.1c-.5.6-1.3.8-2.3.8s-1.8-.3-2.3-.8c-.5-.6-.8-1.3-.8-2.1ZM192.5,229.4h-5.2v-30.3h5.2v30.3Z" fill="#043d5d"/>
    <path d="M206.4,229.4h-5.2v-43h5.2v43Z" fill="#043d5d"/>
  </g>
  <g>
    <path d="M168,62.3h-58.2c-.9,0-1.8.4-2.4,1h0c-.6.6-1,1.5-1,2.4v41.1l28.9,23.4c.5.4,1,.7,1.6.9.6.2,1.3.3,2,.3s1.3-.1,2-.3c.6-.2,1.1-.5,1.6-.9l28.9-23.4v-41.1c0-.9-.4-1.8-1-2.4h0c-.6-.6-1.5-1-2.4-1M103.8,104.8v-27.5l-13.8,11.2c-.2.2-.5.4-.6.6-.5.6-.7,1.3-.7,2,0,.7.2,1.3.7,1.9,0,.1.2.2.3.3l14.2,11.5ZM104.3,108.5l-.5-.4h0l-15.3-12.4v55.5h100.9v-55.5l-15.3,12.4-.5.4-.5.4-.5.4-22.4,18.1-.5.4-.9.8-.5.4-.5.4-.5.4-.5.4-.5.4-.5.4-.5.4-.5.4-.5.4-.5.4c-.7.6-1.5,1-2.4,1.3-.9.3-1.9.5-2.8.5s-1.9-.1-2.8-.5c-.9-.3-1.7-.7-2.4-1.3l-.5-.4-.5-.4-.5-.4-.5-.4-.5-.4-.5-.4-.5-.4-.5-.4-.5-.4-.5-.4-.9-.8-.5-.4-22-17.7-.5-.4-.5-.4-.5-.4ZM174.1,77.3v27.5l14.1-11.4c.1-.1.2-.2.3-.4.5-.6.7-1.3.7-2,0-.7-.2-1.3-.7-1.9-.2-.2-.4-.4-.6-.6l-13.9-11.3ZM152.3,59.7l-9.8-7.9c-1-.8-2.3-1.2-3.6-1.1-1.3,0-2.6.4-3.6,1.2l-9.7,7.9h26.8ZM144.1,49.8l12.3,10h11.6c1.7,0,3.2.7,4.2,1.8h0c1.1,1.1,1.8,2.6,1.8,4.2v8.2l15.6,12.6c.4.3.7.6,1,1,.7.9,1.1,1.9,1.2,2.9h.2c0-.1,0,60.8,0,60.8,0,.7-.3,1.3-.7,1.8h0c-.5.5-1.1.7-1.8.7h-101c-.7,0-1.3-.3-1.8-.7s-.7-1.1-.7-1.8v-61h.2c.1-.9.5-1.9,1.3-2.8.3-.4.6-.7,1-1l15.5-12.5v-8.2c0-1.7.7-3.2,1.8-4.2h0c1.1-1.1,2.6-1.8,4.2-1.8h11.6l12.2-9.9c1.5-1.2,3.3-1.8,5.2-1.8,1.9,0,3.8.6,5.2,1.7ZM194.1,152.8s0,0,0,0" fill="#043d5d"/>
    <path d="M142.6,87.7c0-.2,0-.3,0-.5,0-1.1-.3-2.1-.8-2.8-.5-.7-1.1-1.3-2-1.6-.7-.3-1.4-.4-2.3-.4-1.6,0-2.8.6-3.7,1.5-1,1-1.8,2.3-2.4,3.9-.5,1.4-.7,3-.7,4.5,0,1.7.4,3.1.8,3.8.3.5.7.9,1.1,1.3.9.8,2,1.2,3.1,1.3,1.1,0,2.2-.3,3.2-1,.5-.3.9-.7,1.3-1.1.7-.8,2.1-7.4,2.4-8.7M137.5,80.4c1.1,0,2.2.1,3.1.5,1.2.5,2.2,1.3,2.9,2.4,0,0,0,.1,0,.2l.3-1.2,2,.4c-1.2,5.2-2.4,10.4-3.5,15.6,0,.6.2,1.1.4,1.4.1.2.2.3.4.3.2,0,.4.1.7.1,1,0,2.4-.7,4-1.8,1.7-1.1,3-2.5,4.1-4,1.4-2.1,2.2-4.6,2.3-7,0-2.4-.6-4.8-2.1-7-1-1.4-2.3-2.7-3.9-3.9-2-1.4-4.2-2.2-6.4-2.4-3-.4-6.1.2-8.9,1.5-2.8,1.3-5.3,3.4-7.2,6.2-1.5,2.3-2.6,4.9-3,8-.2,4.6,1,8.3,3.2,11.1,2.1,2.7,5,4.5,8.3,5.6,3.3,1,6.9,1.2,10.4.6,4.4-.8,8.5-3.1,11.3-6.7l1.6,1.2c-3.1,4.1-7.6,6.6-12.5,7.5-3.8.7-7.8.5-11.4-.6-3.6-1.1-6.9-3.2-9.3-6.3-2.4-3.2-3.9-7.3-3.6-12.5h0c.4-3.5,1.6-6.4,3.3-9,2-3,4.8-5.4,8-6.9,3.1-1.5,6.6-2.1,10.1-1.7,2.5.3,5,1.2,7.3,2.8,1.9,1.3,3.4,2.8,4.5,4.4,1.7,2.5,2.5,5.3,2.4,8.1,0,2.8-.9,5.6-2.6,8.1-1.2,1.7-2.7,3.3-4.6,4.6-2,1.3-3.7,2.1-5.1,2.1-.6,0-1.1,0-1.6-.3-.5-.2-.9-.6-1.3-1.1-.3-.5-.5-1.1-.6-1.8-.1,0-.2.2-.3.2-1.3.9-2.8,1.4-4.4,1.3-1.5,0-3.1-.6-4.4-1.8-.5-.5-1-1-1.4-1.6-.6-.9-1.1-2.8-1.1-4.9,0-1.7.2-3.6.8-5.2.7-1.8,1.6-3.4,2.9-4.6,1.3-1.2,3-2,5.1-2Z" fill="#043d5d"/>
  </g>
</svg>