<?xml version="1.0" encoding="UTF-8"?>
<svg id="Layer_1" xmlns="http://www.w3.org/2000/svg" width="280" height="280" version="1.1" viewBox="0 0 280 280">
  <!-- Generator: Adobe Illustrator 29.8.4, SVG Export Plug-In . SVG Version: 2.1.1 Build 6)  -->
  <g>
    <path d="M72.9,219.7c0-1-.1-1.8-.4-2.5-.3-.7-.8-1.4-1.5-2-.7-.6-1.7-1.2-3-1.7-1.3-.5-2.8-1.1-4.8-1.6-2-.6-3.8-1.2-5.5-2-1.6-.7-3-1.6-4.2-2.5s-2-2.1-2.6-3.3-.9-2.6-.9-4.2.3-3.1,1-4.4c.7-1.4,1.6-2.5,2.8-3.5,1.2-1,2.7-1.8,4.4-2.3s3.6-.8,5.7-.8,4.3.3,6.1,1,3.3,1.6,4.5,2.7c1.2,1.1,2.2,2.5,2.8,4,.6,1.5,1,3,1,4.6h-5.4c0-1.1-.2-2.2-.5-3.2s-.9-1.8-1.7-2.5-1.7-1.3-2.8-1.7c-1.1-.4-2.4-.6-4-.6s-2.7.2-3.8.5c-1.1.3-1.9.8-2.6,1.4-.7.6-1.2,1.3-1.5,2.1-.3.8-.5,1.7-.5,2.6s.2,1.6.5,2.4.9,1.4,1.7,2,1.8,1.1,3,1.7c1.2.5,2.6,1,4.3,1.5,2.3.7,4.3,1.4,6,2.2s3.1,1.7,4.2,2.7,1.9,2.1,2.4,3.4c.5,1.3.8,2.7.8,4.3s-.3,3.2-1,4.5c-.7,1.3-1.6,2.5-2.9,3.4s-2.7,1.7-4.5,2.2-3.7.8-5.8.8-2.5-.1-3.8-.4c-1.3-.2-2.5-.6-3.6-1.1-1.1-.5-2.2-1-3.2-1.7s-1.8-1.5-2.6-2.4-1.3-1.9-1.7-3.1c-.4-1.1-.6-2.4-.6-3.8h5.4c0,1.4.3,2.6.8,3.6.6,1,1.3,1.8,2.2,2.5.9.7,2,1.1,3.2,1.4,1.2.3,2.5.5,3.8.5,2.8,0,5-.6,6.5-1.7,1.5-1.2,2.3-2.7,2.3-4.7Z" fill="#043d5d"/>
    <path d="M97,230.5c-2.1,0-4-.4-5.7-1.1s-3.2-1.7-4.4-3c-1.2-1.3-2.1-2.8-2.8-4.6-.7-1.8-1-3.8-1-5.9v-1.2c0-2.5.4-4.7,1.1-6.6.7-1.9,1.7-3.6,3-4.9,1.2-1.3,2.6-2.3,4.2-3,1.6-.7,3.2-1.1,5-1.1s4,.4,5.6,1.1c1.6.8,2.9,1.8,3.9,3.1,1,1.3,1.8,2.9,2.3,4.7.5,1.8.7,3.8.7,5.9v2.3h-20.5c0,1.4.3,2.7.7,3.9s1,2.3,1.8,3.2c.8.9,1.7,1.6,2.8,2.1,1.1.5,2.3.8,3.7.8s3.4-.4,4.7-1.1c1.3-.7,2.4-1.7,3.3-3l3.2,2.5c-.5.7-1.1,1.5-1.8,2.2-.7.7-1.5,1.3-2.4,1.9-.9.6-2,1-3.2,1.3-1.2.3-2.5.5-4.1.5ZM96.4,203.4c-1,0-2,.2-2.9.6s-1.7.9-2.4,1.7c-.7.7-1.3,1.6-1.7,2.7s-.8,2.3-.9,3.7h15.2v-.4c0-1-.2-2-.5-3-.3-1-.7-1.9-1.3-2.7-.6-.8-1.3-1.4-2.2-1.9s-2-.7-3.3-.7Z" fill="#043d5d"/>
    <path d="M129.5,204.3c-.4,0-.9-.1-1.2-.2-.4,0-.8,0-1.3,0-1.8,0-3.3.4-4.4,1.2-1.1.8-2,1.8-2.5,3.2v21.5h-5.2v-30.3h5v3.5c.9-1.3,1.8-2.2,3-3s2.6-1.1,4.3-1.1.8,0,1.3.1c.5,0,.8.2,1,.3v4.8Z" fill="#043d5d"/>
    <path d="M144.7,223l7.5-23.3h5.3l-10.9,30.3h-4l-11-30.3h5.3l7.7,23.3Z" fill="#043d5d"/>
    <path d="M162.6,191.6c0-.8.3-1.5.8-2.1s1.3-.9,2.3-.9,1.8.3,2.3.9.8,1.3.8,2.1-.3,1.5-.8,2.1c-.5.6-1.3.8-2.3.8s-1.8-.3-2.3-.8c-.5-.6-.8-1.3-.8-2.1ZM168.2,230h-5.2v-30.3h5.2v30.3Z" fill="#043d5d"/>
    <path d="M188.6,226.3c.9,0,1.8-.1,2.6-.4.8-.3,1.6-.7,2.2-1.2s1.2-1.1,1.6-1.9.6-1.5.7-2.3h4.9c0,1.3-.4,2.6-1.1,3.9-.7,1.2-1.5,2.3-2.6,3.2-1.1.9-2.3,1.7-3.8,2.2-1.4.6-2.9.8-4.6.8-2.3,0-4.3-.4-6-1.2s-3.1-1.9-4.2-3.3c-1.1-1.4-2-3-2.5-4.8-.6-1.8-.8-3.8-.8-5.8v-1.2c0-2,.3-4,.8-5.8.5-1.8,1.4-3.4,2.5-4.8,1.1-1.4,2.5-2.5,4.2-3.3s3.7-1.2,5.9-1.2,3.4.3,4.8.8,2.7,1.3,3.8,2.3c1.1,1,1.9,2.1,2.5,3.5s.9,2.8,1,4.3h-4.9c0-.9-.3-1.8-.7-2.6s-.9-1.5-1.5-2.1c-.6-.6-1.3-1.1-2.2-1.4-.9-.4-1.8-.5-2.8-.5-1.6,0-2.9.3-4,1-1.1.6-1.9,1.5-2.5,2.5-.6,1-1.1,2.2-1.4,3.5s-.4,2.6-.4,3.9v1.2c0,1.3.1,2.7.4,4s.7,2.5,1.3,3.5c.6,1,1.5,1.9,2.5,2.5,1.1.6,2.4,1,4,1Z" fill="#043d5d"/>
    <path d="M219.1,230.5c-2.1,0-4-.4-5.7-1.1s-3.2-1.7-4.4-3c-1.2-1.3-2.1-2.8-2.8-4.6-.7-1.8-1-3.8-1-5.9v-1.2c0-2.5.4-4.7,1.1-6.6.7-1.9,1.7-3.6,3-4.9,1.2-1.3,2.6-2.3,4.2-3,1.6-.7,3.2-1.1,5-1.1s4,.4,5.6,1.1c1.6.8,2.9,1.8,3.9,3.1,1,1.3,1.8,2.9,2.3,4.7.5,1.8.7,3.8.7,5.9v2.3h-20.5c0,1.4.3,2.7.7,3.9s1,2.3,1.8,3.2c.8.9,1.7,1.6,2.8,2.1,1.1.5,2.3.8,3.7.8s3.4-.4,4.7-1.1c1.3-.7,2.4-1.7,3.3-3l3.2,2.5c-.5.7-1.1,1.5-1.8,2.2-.7.7-1.5,1.3-2.4,1.9-.9.6-2,1-3.2,1.3-1.2.3-2.5.5-4.1.5ZM218.4,203.4c-1,0-2,.2-2.9.6s-1.7.9-2.4,1.7c-.7.7-1.3,1.6-1.7,2.7s-.8,2.3-.9,3.7h15.2v-.4c0-1-.2-2-.5-3-.3-1-.7-1.9-1.3-2.7-.6-.8-1.3-1.4-2.2-1.9s-2-.7-3.3-.7Z" fill="#043d5d"/>
  </g>
  <path d="M115.5,52.6h-5.6c0,0-.1,0-.2,0,0,0,0,.1,0,.2v19c0,0,0,.1,0,.2,0,0,.1,0,.2,0h5.6c0,0,.1,0,.2,0,0,0,0-.1,0-.2v-19c0,0,0-.1,0-.2,0,0-.1,0-.2,0M169.7,52.6h-5.6c0,0-.1,0-.2,0,0,0,0,.1,0,.2v19c0,0,0,.1,0,.2,0,0,.1,0,.2,0h5.6c0,0,.1,0,.2,0,0,0,0-.1,0-.2v-19c0,0,0-.1,0-.2,0,0-.1,0-.2,0ZM146.7,124.6h-13.8c-.3,0-.5.1-.7.3h0c-.2.2-.3.4-.3.7v13.8c0,.3.1.5.3.7h0c.2.2.4.3.7.3h13.8c.3,0,.5-.1.7-.3h0c.2-.2.3-.4.3-.7v-13.8c0-.3-.1-.5-.3-.7h0c-.2-.2-.4-.3-.7-.3ZM132.9,121.4h13.8c1.1,0,2.2.5,2.9,1.2h0c.7.8,1.2,1.8,1.2,2.9v13.8c0,1.1-.5,2.2-1.2,2.9h0c-.7.7-1.8,1.2-2.9,1.2h-13.8c-1.1,0-2.2-.5-2.9-1.2h0c-.7-.7-1.2-1.8-1.2-2.9v-13.8c0-1.1.5-2.2,1.2-2.9h0c.7-.8,1.8-1.2,2.9-1.2ZM146.7,96.7h-13.8c-.3,0-.5.1-.7.3h0c-.2.2-.3.4-.3.7v13.8c0,.3.1.5.3.7.2.2.4.3.7.3h13.8c.3,0,.5-.1.7-.3h0c.2-.2.3-.4.3-.7v-13.8c0-.3-.1-.5-.3-.7h0c-.2-.2-.4-.3-.7-.3ZM132.9,93.5h13.8c1.1,0,2.2.5,2.9,1.2h0c.7.8,1.2,1.8,1.2,2.9v13.8c0,1.1-.5,2.2-1.2,2.9h0c-.7.8-1.8,1.2-2.9,1.2h-13.8c-1.1,0-2.2-.5-2.9-1.2-.7-.7-1.2-1.8-1.2-2.9v-13.8c0-1.1.5-2.2,1.2-2.9h0c.7-.8,1.8-1.2,2.9-1.2ZM193.9,86.5h-108.2v59.4c0,1.2.5,2.4,1.3,3.2.8.8,1.9,1.3,3.2,1.3h99.2c1.2,0,2.4-.5,3.2-1.3.8-.8,1.3-1.9,1.3-3.2v-59.4ZM119,63.5v8.4c0,1-.4,1.8-1,2.5-.6.6-1.5,1-2.5,1h-5.6c-1,0-1.8-.4-2.5-1-.6-.6-1-1.5-1-2.5v-8.4h-16.2c-1.2,0-2.4.5-3.2,1.3-.8.8-1.3,1.9-1.3,3.2v15.3h108.2v-15.3c0-1.2-.5-2.4-1.3-3.2-.8-.8-1.9-1.3-3.2-1.3h-16.2v8.4c0,1-.4,1.8-1,2.5-.6.6-1.5,1-2.5,1h-5.6c-1,0-1.8-.4-2.5-1-.6-.6-1-1.5-1-2.5v-8.4h-41.6ZM179.2,124.6h-13.8c-.3,0-.5.1-.7.3h0c-.2.2-.3.4-.3.7v13.8c0,.3.1.5.3.7h0c.2.2.4.3.7.3h13.8c.3,0,.5-.1.7-.3h0c.2-.2.3-.4.3-.7v-13.8c0-.3-.1-.5-.3-.7h0c-.2-.2-.4-.3-.7-.3ZM165.4,121.4h13.8c1.1,0,2.2.5,2.9,1.2h0c.7.8,1.2,1.8,1.2,2.9v13.8c0,1.1-.5,2.2-1.2,2.9h0c-.7.7-1.8,1.2-2.9,1.2h-13.8c-1.1,0-2.2-.5-2.9-1.2h0c-.7-.7-1.2-1.8-1.2-2.9v-13.8c0-1.1.5-2.2,1.2-2.9h0c.7-.8,1.8-1.2,2.9-1.2ZM114.2,124.6h-13.8c-.3,0-.5.1-.7.3h0c-.2.2-.3.4-.3.7v13.8c0,.3.1.5.3.7h0c.2.2.4.3.7.3h13.8c.3,0,.5-.1.7-.3h0c.2-.2.3-.4.3-.7v-13.8c0-.3-.1-.5-.3-.7h0c-.2-.2-.4-.3-.7-.3ZM100.4,121.4h13.8c1.1,0,2.2.5,2.9,1.2h0c.7.8,1.2,1.8,1.2,2.9v13.8c0,1.1-.5,2.2-1.2,2.9h0c-.7.7-1.8,1.2-2.9,1.2h-13.8c-1.1,0-2.2-.5-2.9-1.2h0c-.7-.7-1.2-1.8-1.2-2.9v-13.8c0-1.1.5-2.2,1.2-2.9h0c.7-.8,1.8-1.2,2.9-1.2ZM179.2,96.7h-13.8c-.3,0-.5.1-.7.3h0c-.2.2-.3.4-.3.7v13.8c0,.3.1.5.3.7.2.2.4.3.7.3h13.8c.3,0,.5-.1.7-.3h0c.2-.2.3-.4.3-.7v-13.8c0-.3-.1-.5-.3-.7h0c-.2-.2-.4-.3-.7-.3ZM165.4,93.5h13.8c1.1,0,2.2.5,2.9,1.2h0c.7.8,1.2,1.8,1.2,2.9v13.8c0,1.1-.5,2.2-1.2,2.9h0c-.7.8-1.8,1.2-2.9,1.2h-13.8c-1.1,0-2.2-.5-2.9-1.2-.7-.7-1.2-1.8-1.2-2.9v-13.8c0-1.1.5-2.2,1.2-2.9h0c.7-.8,1.8-1.2,2.9-1.2ZM114.2,96.7h-13.8c-.3,0-.5.1-.7.3h0c-.2.2-.3.4-.3.7v13.8c0,.3.1.5.3.7.2.2.4.3.7.3h13.8c.3,0,.5-.1.7-.3h0c.2-.2.3-.4.3-.7v-13.8c0-.3-.1-.5-.3-.7h0c-.2-.2-.4-.3-.7-.3ZM100.4,93.5h13.8c1.1,0,2.2.5,2.9,1.2h0c.7.8,1.2,1.8,1.2,2.9v13.8c0,1.1-.5,2.2-1.2,2.9h0c-.7.8-1.8,1.2-2.9,1.2h-13.8c-1.1,0-2.2-.5-2.9-1.2-.7-.7-1.2-1.8-1.2-2.9v-13.8c0-1.1.5-2.2,1.2-2.9h0c.7-.8,1.8-1.2,2.9-1.2ZM109.9,49.5h5.6c1,0,1.8.4,2.5,1,.6.6,1,1.5,1,2.5v7.4h41.6v-7.4c0-1,.4-1.8,1-2.5s1.5-1,2.5-1h5.6c1,0,1.8.4,2.5,1,.6.6,1,1.5,1,2.5v7.4h16.2c2.1,0,4,.9,5.4,2.3,1.4,1.4,2.3,3.3,2.3,5.4v15.3h0v62.6c0,2.1-.9,4-2.3,5.4-1.4,1.4-3.3,2.3-5.4,2.3h-99.2c-2.1,0-4-.9-5.4-2.3-1.4-1.4-2.3-3.3-2.3-5.4v-77.9c0-2.1.9-4,2.3-5.4,1.4-1.4,3.3-2.3,5.4-2.3h16.2v-7.4c0-1,.4-1.8,1-2.5s1.5-1,2.5-1Z" fill="#043d5d"/>
</svg>