<?xml version="1.0" encoding="UTF-8"?>
<svg id="Layer_1" xmlns="http://www.w3.org/2000/svg" width="280" height="280" version="1.1" viewBox="0 0 280 280">
  <!-- Generator: Adobe Illustrator 29.8.4, SVG Export Plug-In . SVG Version: 2.1.1 Build 6)  -->
  <g>
    <path d="M114.6,217.1c-.2,1.9-.7,3.7-1.4,5.4-.7,1.7-1.7,3.1-3,4.3-1.3,1.2-2.8,2.1-4.7,2.8s-4,1-6.4,1-4.6-.4-6.6-1.3-3.6-2.2-5-3.8c-1.4-1.7-2.5-3.6-3.2-6-.8-2.3-1.1-4.9-1.1-7.8v-4.1c0-2.9.4-5.4,1.1-7.8s1.9-4.3,3.3-6c1.4-1.7,3.1-2.9,5.2-3.8s4.3-1.4,6.8-1.4,4.3.3,6.1,1c1.8.7,3.3,1.6,4.5,2.8,1.2,1.2,2.2,2.6,3,4.3.7,1.7,1.2,3.5,1.4,5.5h-5.4c-.2-1.4-.5-2.7-1-3.8-.4-1.1-1-2.1-1.8-2.9-.8-.8-1.7-1.4-2.8-1.8-1.1-.4-2.5-.6-4-.6s-3.4.4-4.8,1.1c-1.4.7-2.5,1.7-3.4,2.9s-1.6,2.8-2.1,4.6c-.5,1.8-.7,3.8-.7,5.9v4.1c0,2,.2,3.9.6,5.6.4,1.8,1.1,3.3,1.9,4.6.9,1.3,2,2.4,3.3,3.1s2.9,1.1,4.7,1.1,3.2-.2,4.3-.6c1.2-.4,2.2-1,2.9-1.8.8-.8,1.4-1.7,1.8-2.9.4-1.1.8-2.4,1-3.9h5.4Z" fill="#043d5d"/>
    <path d="M126.4,203.4c1.1-1.3,2.4-2.4,3.9-3.1s3.2-1.1,5.1-1.1,2.8.2,4,.6c1.2.4,2.2,1,3.1,1.9.8.9,1.5,2,1.9,3.4.5,1.4.7,3.1.7,5.1v19.9h-5.2v-19.9c0-1.2-.1-2.2-.4-3-.3-.8-.6-1.5-1.2-2-.5-.5-1.1-.9-1.9-1.1-.8-.2-1.6-.4-2.6-.4-1.7,0-3.2.4-4.4,1.3s-2.3,2.1-3,3.5v21.6h-5.2v-43h5.2v16.4Z" fill="#043d5d"/>
    <path d="M171.5,230.1c-.2-.4-.3-.8-.4-1.4-.1-.6-.2-1.2-.3-1.8-.5.5-1,1-1.6,1.4-.6.5-1.3.9-2,1.2-.7.3-1.5.6-2.3.8-.8.2-1.7.3-2.7.3-1.6,0-3-.2-4.2-.7-1.3-.5-2.3-1.1-3.2-1.9s-1.6-1.8-2.1-2.8c-.5-1.1-.7-2.3-.7-3.5s.3-3.1,1-4.3c.6-1.2,1.5-2.3,2.7-3.1,1.2-.8,2.6-1.5,4.3-1.9s3.6-.6,5.6-.6h5.2v-2.4c0-1.8-.5-3.3-1.6-4.3-1.1-1.1-2.7-1.6-4.8-1.6s-1.9.1-2.7.4c-.8.3-1.5.6-2.1,1-.6.4-1,.9-1.3,1.5-.3.6-.5,1.2-.5,1.8h-5.2c0-1.1.3-2.2.9-3.2.6-1.1,1.4-2,2.4-2.9s2.3-1.5,3.8-2.1c1.5-.5,3.1-.8,5-.8s3.2.2,4.6.6,2.6,1.1,3.6,1.9c1,.8,1.8,1.9,2.3,3.2.6,1.3.8,2.8.8,4.5v14.1c0,1,0,2.1.3,3.2.2,1.1.4,2.1.8,2.9v.4h-5.4ZM162.9,226.1c.9,0,1.8-.1,2.6-.4.8-.3,1.6-.6,2.2-1,.7-.4,1.3-.9,1.8-1.4.5-.5.9-1.1,1.2-1.7v-6.2h-4.3c-3,0-5.3.5-6.9,1.4s-2.4,2.3-2.4,4.2.1,1.4.4,2c.2.6.6,1.2,1.1,1.6.5.5,1.1.8,1.8,1.1.7.3,1.6.4,2.5.4Z" fill="#043d5d"/>
    <path d="M191,192.4v7.3h5.7v4h-5.7v18.8c0,.8,0,1.4.3,1.9.2.5.4.8.7,1.1.3.3.7.4,1.1.5s.8.1,1.2.1.9,0,1.4-.1.8-.2,1.1-.2v4.2c-.4.1-.9.2-1.6.4-.7.1-1.4.2-2.4.2s-1.9-.1-2.7-.4-1.6-.7-2.2-1.4c-.6-.6-1.1-1.5-1.5-2.5-.4-1-.6-2.3-.6-3.8v-18.8h-5.5v-4h5.5v-7.3h5.2Z" fill="#043d5d"/>
  </g>
  <g>
    <path d="M192.5,147.3l-16.2-3.5c-5.4,2.3-12.3,3.4-19.3,3-9.2-1.6-13.8-2.9-17.2-4.4,2.1-.1,4.1-.3,6.2-.6,3.5,1,7.1,1.7,11.2,1.9,6.7.4,13.3-.7,18.3-2.9h1c0-.1,14.1,2.9,14.1,2.9l-3.4-11,.6-.7c2.1-2.4,3.8-5.2,4.9-8.2,1.1-2.9,1.6-5.9,1.5-8.9,0-1.2-.2-2.3-.5-3.5-.2-1.2-.6-2.3-1-3.4-.8-2.1-1.9-4-3.2-5.7,0-.6,0-1.1.1-1.7,0-1,0-1.9,0-2.9.8.8,1.6,1.7,2.3,2.7,1.5,2,2.7,4.2,3.6,6.5.5,1.3.9,2.6,1.2,3.9h0c.3,1.3.4,2.6.5,4,.2,3.4-.5,6.9-1.7,10.1-1.2,3.1-2.9,6-4.9,8.5l4.5,14.4-2.6-.6Z" fill="#043d5d"/>
    <path d="M114.7,92.7c-1.2-1.3-2.9-2.1-4.8-2.2-1.9,0-3.6.7-4.8,2-1.3,1.3-2.1,3.1-2.1,5,0,2,.7,3.8,1.9,5.1,1.2,1.3,2.9,2.1,4.8,2.2,1.9,0,3.6-.7,4.8-2,1.3-1.3,2.1-3.1,2.1-5,0-2-.7-3.8-1.9-5.1M110,87.4c2.7,0,5.2,1.3,7,3.2,1.7,1.9,2.8,4.5,2.7,7.3,0,2.8-1.2,5.4-3,7.2-1.8,1.8-4.3,2.9-7.1,2.9-2.7,0-5.2-1.3-7-3.2-1.7-1.9-2.8-4.5-2.7-7.3,0-2.8,1.2-5.4,3-7.2,1.8-1.8,4.3-2.9,7.1-2.9ZM140.3,93.2c-1.2-1.3-2.9-2.1-4.8-2.2-1.9,0-3.6.7-4.8,2-1.3,1.3-2.1,3.1-2.1,5,0,2,.7,3.8,1.9,5.1,1.2,1.3,2.9,2.1,4.8,2.2,1.9,0,3.6-.7,4.8-2,1.3-1.3,2.1-3.1,2.1-5,0-2-.7-3.8-1.9-5.1ZM135.6,87.9c2.7,0,5.2,1.3,7,3.2,1.7,1.9,2.8,4.5,2.7,7.3,0,2.8-1.2,5.4-3,7.2-1.8,1.8-4.3,2.9-7.1,2.9-2.7,0-5.2-1.3-7-3.2-1.7-1.9-2.8-4.5-2.7-7.3,0-2.8,1.2-5.4,3-7.2,1.8-1.8,4.3-2.9,7.1-2.9ZM160.9,91.5h0s0,0,0,0c-1.9,0-3.6.7-4.8,2-1.3,1.3-2.1,3-2.1,5h0,0c0,2,.7,3.8,1.9,5.1,1.2,1.3,2.9,2.1,4.7,2.2h0s0,0,0,0c1.9,0,3.6-.7,4.8-2,1.3-1.3,2.1-3,2.1-5h0,0c0-2-.7-3.8-1.9-5.1-1.2-1.3-2.9-2.1-4.7-2.2ZM160.9,88.4h0c2.7,0,5.2,1.3,7,3.2,1.7,1.9,2.8,4.4,2.7,7.2h0,0c0,2.8-1.2,5.4-3,7.2-1.8,1.8-4.3,2.9-7.1,2.9h0s0,0,0,0c-2.7,0-5.2-1.3-7-3.2-1.7-1.9-2.8-4.4-2.7-7.2h0,0c0-2.8,1.2-5.4,3-7.2,1.8-1.8,4.3-2.9,7.1-2.9h0ZM112.2,136.3l-26,5.5,6.2-19.8c-3-3.6-5.5-7.8-7.2-12.2-1.7-4.6-2.6-9.4-2.3-14.2,0-1.9.3-3.8.7-5.6.4-1.8.9-3.7,1.6-5.4,1.8-4.5,4.4-8.6,7.6-12.2,3.4-3.8,7.6-7,12-9.5,2.3-1.3,4.8-2.5,7.3-3.4,2.6-1,5.2-1.8,7.9-2.4,2.8-.7,5.7-1.1,8.6-1.4,2.9-.3,5.8-.3,8.8-.2,5.7.3,11.4,1.3,16.9,3.1,5.2,1.7,10.3,4.2,14.8,7.4,4.2,2.9,8,6.5,11.1,10.6,2.9,3.8,5.1,8.2,6.4,12.9.5,1.8.9,3.7,1.1,5.6.2,1.9.3,3.7.2,5.6-.3,5.3-1.4,10-3.3,14.2-4.3,9.6-12.4,16.3-21.9,20.5-9.4,4.1-20.3,5.8-30.4,5.3-7.3-.4-14.3-1.8-20-4.3ZM90.7,137.7l21.3-4.5h1c5.5,2.6,12.2,4,19.4,4.4,9.7.5,20-1.1,29-5,8.9-3.9,16.3-10.1,20.3-18.9,1.7-3.9,2.8-8.2,3-13.1,0-1.7,0-3.4-.2-5.2-.2-1.7-.5-3.4-1-5.1-1.2-4.3-3.3-8.3-5.9-11.8-2.9-3.8-6.4-7.2-10.3-9.9-4.3-3-9-5.3-14-7-5.2-1.7-10.6-2.7-16.1-2.9-2.8-.1-5.6,0-8.4.2-2.8.2-5.5.7-8.2,1.3-2.6.6-5.1,1.4-7.5,2.3-2.4.9-4.7,2-6.9,3.2-4.2,2.4-8,5.4-11.3,8.9-3,3.3-5.4,7-7,11.2-.6,1.6-1.1,3.3-1.5,5-.4,1.7-.6,3.4-.7,5.1-.2,4.4.6,8.8,2.1,13,1.6,4.4,4.1,8.5,7.2,11.9l.6.7-5.2,16.4Z" fill="#043d5d"/>
  </g>
</svg>