<?xml version="1.0" encoding="UTF-8"?>
<svg id="Layer_1" xmlns="http://www.w3.org/2000/svg" width="1440" height="408" version="1.1" viewBox="0 0 1440 408">
  <!-- Generator: Adobe Illustrator 29.8.4, SVG Export Plug-In . SVG Version: 2.1.1 Build 6)  -->
  <g>
    <path d="M303,295.6c3.6,0,6,.8,7.3,2.4,1.3,1.6,1.6,3.8,1,6.5-.8,3.4-2.5,5.8-5.2,7.3-2.7,1.5-6.3,2.3-10.7,2.3s-2,0-3.1,0c-1.1,0-2.1-.1-3.1-.3-1-.1-1.9-.3-2.8-.5-.9-.2-1.6-.4-2.2-.7h-.5l-2.7,11.8h-6.6l5.7-24.8c.3-1.2.8-2.1,1.6-2.9.8-.8,1.9-1.1,3.3-1.1h17.8ZM284.7,309.3c.8.2,2,.3,3.5.4s3.5.2,6,.2,5.8-.4,7.4-1.3,2.7-2.1,3.1-3.9c.3-1.5,0-2.7-.7-3.5s-2.5-1.2-4.9-1.2h-12.2l-2.1,9.3Z" fill="#043d5c"/>
    <path d="M312.9,313.4c.4-1.8,1.1-3.5,2-4.9.9-1.4,2.1-2.6,3.5-3.6,1.4-1,3.2-1.7,5.2-2.2,2-.5,4.4-.8,7-.8s4.9.3,6.6.8c1.8.5,3.1,1.2,4.1,2.2s1.6,2.2,1.8,3.6c.2,1.4.1,3.1-.3,4.9-.4,1.9-1.1,3.5-2,5-.9,1.4-2,2.6-3.5,3.6s-3.1,1.7-5.2,2.2c-2,.5-4.3.8-7,.8s-4.9-.3-6.7-.8c-1.8-.5-3.2-1.2-4.2-2.2-1-1-1.6-2.2-1.8-3.6-.2-1.4-.1-3.1.3-5ZM319.3,313c-.3,1.4-.4,2.6-.3,3.5,0,1,.4,1.8,1,2.4s1.4,1,2.4,1.3,2.4.4,4,.4,3-.1,4.2-.4c1.2-.3,2.2-.7,3-1.3.8-.6,1.5-1.4,2-2.3.5-1,.9-2.1,1.2-3.5.3-1.1.4-2.1.3-3,0-.9-.4-1.6-.9-2.2-.5-.6-1.3-1-2.4-1.3s-2.4-.4-4-.4c-3.2,0-5.7.6-7.3,1.7-1.6,1.1-2.7,2.8-3.2,5.1Z" fill="#043d5c"/>
    <path d="M360.8,320.3c-.8,1.4-1.8,2.5-3,3.3-1.2.8-2.7,1.2-4.3,1.2s-1.6-.1-2.4-.4c-.7-.2-1.3-.6-1.8-1.2s-.9-1.2-1.1-2c-.2-.8-.3-1.7-.2-2.8l1.2-15.8h6.3l-.8,14c0,.9,0,1.5,0,1.8.1.3.4.5.8.5s1-.4,1.5-1.1c.5-.7,1.1-1.7,1.7-2.9l3.8-6.8c1-1.7,2-2.9,3.2-3.5,1.2-.7,2.4-1,3.8-1s2.5.3,3.4,1,1.4,1.8,1.5,3.5l.7,6.8c.1,1.2.3,2.1.4,2.9.1.7.4,1.1.9,1.1s.8-.2,1.1-.5c.3-.3.6-1,1-1.8l5.6-14h6.2l-6.1,15.8c-.8,2.2-2,3.8-3.5,4.8-1.5,1-3.1,1.5-4.9,1.5s-2.9-.4-3.7-1.2c-.8-.8-1.3-1.9-1.5-3.3l-.8-7.3c0-1-.2-1.8-.3-2.3-.1-.6-.2-1-.3-1.3-.1-.3-.2-.5-.3-.6-.1,0-.3-.1-.4-.1s-.4,0-.5.1c-.2,0-.4.3-.6.6-.2.3-.5.7-.9,1.3-.4.6-.8,1.3-1.4,2.3l-4.2,7.3Z" fill="#043d5c"/>
    <path d="M419.4,316.6c-.9,2.7-2.7,4.8-5.4,6.2-2.7,1.5-6.3,2.2-10.6,2.2s-4.5-.3-6.2-.8c-1.7-.5-3-1.3-4-2.3-1-1-1.6-2.2-1.8-3.6-.3-1.4-.2-3,.2-4.8.8-3.7,2.6-6.5,5.4-8.5s6.7-3,11.7-3,7.6.9,9.7,2.6c2.1,1.7,2.7,4.2,2,7.2l-.6,2.6h-22.2c-.4,1.9,0,3.4,1,4.6,1.1,1.2,3.2,1.7,6.2,1.7s4.3-.3,5.8-.8,2.6-1.6,3.2-3.3h5.5ZM414.7,310.9c.2-1.4-.3-2.6-1.4-3.5-1.1-.9-2.9-1.3-5.3-1.3s-2.7.1-3.7.4-2,.7-2.7,1.1c-.7.4-1.3,1-1.8,1.5s-.7,1.1-.9,1.7h15.8Z" fill="#043d5c"/>
    <path d="M429,324.4h-6.4l5-21.7h6.4l-1,4.4h.3c1.1-1.5,2.6-2.8,4.4-3.8,1.8-1,4.3-1.5,7.3-1.5s.8,0,1.3,0c.5,0,.9,0,1.2.1l-1.3,5.8c-1-.3-2.8-.4-5.3-.4s-4.6.4-6.2,1.2c-1.6.8-2.5,1.9-2.8,3.4l-2.9,12.5Z" fill="#043d5c"/>
    <path d="M475.5,316.6c-.9,2.7-2.7,4.8-5.4,6.2-2.7,1.5-6.3,2.2-10.6,2.2s-4.5-.3-6.2-.8c-1.7-.5-3-1.3-4-2.3-1-1-1.6-2.2-1.8-3.6-.3-1.4-.2-3,.2-4.8.8-3.7,2.6-6.5,5.4-8.5s6.7-3,11.7-3,7.6.9,9.7,2.6c2.1,1.7,2.7,4.2,2,7.2l-.6,2.6h-22.2c-.4,1.9,0,3.4,1,4.6,1.1,1.2,3.2,1.7,6.2,1.7s4.3-.3,5.8-.8,2.6-1.6,3.2-3.3h5.5ZM470.8,310.9c.2-1.4-.3-2.6-1.4-3.5-1.1-.9-2.9-1.3-5.3-1.3s-2.7.1-3.7.4-2,.7-2.7,1.1c-.7.4-1.3,1-1.8,1.5s-.7,1.1-.9,1.7h15.8Z" fill="#043d5c"/>
    <path d="M499.6,324.4l.7-3h-.3c-1.3,1.1-2.7,2-4.4,2.6-1.7.6-3.7,1-6.2,1-3.8,0-6.5-1-8.2-3-1.7-2-2.1-4.9-1.2-8.6.9-3.9,2.6-6.7,5.2-8.7,2.5-1.9,5.8-2.9,9.7-2.9s2.4,0,3.3.3c.9.2,1.7.4,2.4.8s1.3.7,1.8,1.2c.5.5,1,1,1.4,1.5h.3l2.6-11.2h6.4l-6.9,30h-6.4ZM502.3,312.4c.5-2.2.2-3.7-1.1-4.7-1.3-1-3.3-1.5-6.2-1.5s-2.6.1-3.6.4-1.8.7-2.5,1.3c-.7.6-1.2,1.3-1.6,2.2s-.8,2-1.1,3.2c-.3,1.2-.4,2.3-.4,3.2s.2,1.7.6,2.2c.4.6,1,1,1.9,1.3s2,.4,3.4.4c2.9,0,5.1-.5,6.8-1.4,1.7-.9,2.8-2.5,3.3-4.7l.5-1.9Z" fill="#043d5c"/>
    <path d="M528.3,324.4l6.9-30h6.4l-2.6,11.2h.4c1.3-1.1,2.8-2,4.4-2.7s3.7-1,6.2-1c3.9,0,6.7,1,8.3,2.9,1.7,1.9,2.1,4.8,1.2,8.6-.9,3.8-2.6,6.7-5.2,8.7-2.6,2-5.8,2.9-9.6,2.9s-4.4-.3-5.8-1c-1.4-.6-2.4-1.5-3.2-2.6h-.3l-.7,3h-6.4ZM537,314.4c-.5,2.2-.1,3.8,1.1,4.7,1.3.9,3.4,1.4,6.2,1.4s2.6-.1,3.6-.4,1.8-.7,2.5-1.3c.7-.6,1.2-1.3,1.6-2.2s.8-2,1-3.2c.3-1.2.4-2.3.4-3.2s-.2-1.6-.6-2.2c-.4-.6-1.1-1-1.9-1.3s-2-.4-3.4-.4c-2.8,0-5.1.5-6.8,1.5-1.7,1-2.8,2.5-3.3,4.7l-.4,1.9Z" fill="#043d5c"/>
    <path d="M581.7,319.7c-1.1,1.4-2.3,2.5-3.6,3-1.4.6-2.8.9-4.3.9s-2.6-.3-3.8-.9c-1.1-.6-2.1-1.6-2.8-3s-1.3-3.3-1.6-5.7c-.3-2.4-.4-5.3-.1-8.8l.3-2.5h6.4l-.4,2.4c-.2,2.4-.3,4.4-.3,6.1,0,1.7.2,3,.5,4.1.3,1.1.8,1.8,1.5,2.3.7.5,1.6.7,2.7.7s2.4-.3,3.3-.8c1-.5,1.9-1.4,2.7-2.5.8-1.1,1.6-2.5,2.3-4.2.7-1.7,1.4-3.6,2.1-5.8l.9-2.4h6.4l-1.8,5.9c-1.1,3.6-2.4,7-3.9,10-1.5,3-3.1,5.7-5,7.9s-4,4-6.4,5.2c-2.4,1.2-5.1,1.9-8.1,1.9s-2.3-.1-3.5-.3c-1.1-.2-2.2-.6-3-1l1.1-4.8c1.2.3,2.4.6,3.7.7,1.3.2,2.4.2,3.3.2,1.3,0,2.5-.2,3.6-.6,1.2-.4,2.3-1,3.3-1.8,1-.8,1.9-1.7,2.8-2.7s1.5-2.2,2.1-3.5h-.4Z" fill="#043d5c"/>
    <path d="M623.2,295.5l-3.4,14.7c.5-.8,1.1-1.5,1.8-2,.8-.5,1.6-.7,2.5-.7h15.9l2.8-12.1h6.6l-6.7,28.8h-6.6l2.7-11.8h-19.6l-2.7,11.8h-6.6l6.7-28.8h6.6Z" fill="#043d5c"/>
    <path d="M672,324.4c-1,0-1.7-.3-2.1-.8-.4-.5-.6-1.1-.4-1.8l.2-1.1h-.2c-.5.6-1.2,1.2-2,1.8-.8.5-1.7,1-2.8,1.4s-2.2.7-3.4.9c-1.2.2-2.4.3-3.7.3-3.1,0-5.3-.6-6.6-1.8s-1.7-2.8-1.2-4.9c.5-2,1.6-3.7,3.5-4.9s4.6-1.8,8.1-1.8h10.3c.2-1.8,0-3.2-.8-4.2-.8-.9-2.3-1.4-4.5-1.4s-3.9.3-5.1.9c-1.2.6-1.9,1.3-2.2,2.1h-5.8c.3-1,.8-1.9,1.5-2.8.7-.9,1.7-1.7,2.8-2.4,1.2-.7,2.6-1.2,4.2-1.6,1.6-.4,3.5-.6,5.7-.6s4.2.3,5.8.8c1.5.5,2.7,1.2,3.5,2.2.8,1,1.3,2.2,1.4,3.6.2,1.4,0,3.1-.4,4.9l-2.5,10.9h-3.3ZM671,315h-9.3c-1,0-1.9,0-2.6.2-.7.1-1.3.3-1.7.6s-.8.6-1.1.9c-.2.4-.4.8-.6,1.2,0,.5,0,.9,0,1.3.1.4.4.7.8,1s1,.5,1.8.7,1.8.3,3,.3,2.1-.1,3.1-.4c1-.3,2-.7,2.9-1.1.9-.5,1.6-1,2.2-1.6.6-.6,1-1.2,1.1-1.8l.3-1.2Z" fill="#043d5c"/>
    <path d="M687.6,324.4h-6.4l5-21.7h6.4l-1,4.4h.3c1.1-1.5,2.6-2.8,4.4-3.8,1.8-1,4.3-1.5,7.3-1.5s.8,0,1.3,0c.5,0,.9,0,1.2.1l-1.3,5.8c-1-.3-2.8-.4-5.3-.4s-4.6.4-6.2,1.2c-1.6.8-2.5,1.9-2.8,3.4l-2.9,12.5Z" fill="#043d5c"/>
    <path d="M726.1,324.4l.7-3h-.3c-1.3,1.1-2.7,2-4.4,2.6-1.7.6-3.7,1-6.2,1-3.8,0-6.5-1-8.2-3-1.7-2-2.1-4.9-1.2-8.6.9-3.9,2.6-6.7,5.2-8.7,2.5-1.9,5.8-2.9,9.7-2.9s2.4,0,3.3.3c.9.2,1.7.4,2.4.8.7.3,1.3.7,1.8,1.2.5.5,1,1,1.4,1.5h.3l2.6-11.2h6.4l-6.9,30h-6.4ZM728.9,312.4c.5-2.2.2-3.7-1.1-4.7-1.3-1-3.3-1.5-6.2-1.5s-2.6.1-3.6.4-1.8.7-2.5,1.3c-.7.6-1.2,1.3-1.6,2.2s-.8,2-1.1,3.2c-.3,1.2-.4,2.3-.4,3.2s.2,1.7.6,2.2c.4.6,1,1,1.9,1.3s2,.4,3.4.4c2.9,0,5.1-.5,6.8-1.4,1.7-.9,2.8-2.5,3.3-4.7l.5-1.9Z" fill="#043d5c"/>
    <path d="M773.9,318.5c-.5.9-1.1,1.7-1.7,2.5-.6.8-1.3,1.5-2.1,2.1s-1.6,1.1-2.4,1.4-1.8.5-2.8.5c-3,0-4.9-2.1-5.5-6.4s-.2-10.8,1.1-19.5l.6-3.5h6.5l-.4,2.3c-.8,4.5-1.4,8.1-1.7,10.8-.3,2.7-.4,4.8-.4,6.3,0,1.5.2,2.4.5,2.9.3.5.7.7,1.1.7.6,0,1.3-.5,2.1-1.6.8-1,1.6-2.4,2.6-4.1l5.5-9.6c1.1-1.9,2.4-3.5,3.8-4.7s3-1.8,4.7-1.8,3,.6,3.9,1.8,1.4,2.7,1.7,4.7l1.1,9.6c.2,1.7.4,3,.7,4.1s.7,1.6,1.4,1.6.9-.2,1.4-.7c.5-.5,1.1-1.4,1.9-2.9s1.6-3.6,2.5-6.3c1-2.7,2-6.3,3.3-10.8l.6-2.3h6.6l-1.1,3.5c-1.4,4.4-2.7,8.2-4,11.4-1.3,3.2-2.6,5.9-4,8.1-1.3,2.1-2.7,3.7-4.1,4.8-1.4,1.1-2.8,1.6-4.4,1.6s-1.8-.2-2.5-.5-1.3-.8-1.8-1.4c-.5-.6-.8-1.3-1.1-2.1-.3-.8-.4-1.6-.5-2.5l-1-9.3c-.2-1.4-.3-2.5-.4-3.3-.1-.8-.3-1.5-.4-1.9s-.3-.7-.4-.9c-.2-.2-.4-.2-.6-.2s-.5,0-.7.2c-.2.2-.5.5-.9.9s-.8,1.1-1.3,1.9c-.5.8-1.2,1.9-2,3.3l-5.3,9.3Z" fill="#043d5c"/>
    <path d="M808.9,313.4c.4-1.8,1.1-3.5,2-4.9.9-1.4,2.1-2.6,3.5-3.6,1.4-1,3.2-1.7,5.2-2.2,2-.5,4.4-.8,7-.8s4.9.3,6.6.8c1.8.5,3.1,1.2,4.1,2.2,1,1,1.6,2.2,1.8,3.6.2,1.4.1,3.1-.3,4.9-.4,1.9-1.1,3.5-2,5-.9,1.4-2,2.6-3.5,3.6s-3.1,1.7-5.2,2.2c-2,.5-4.3.8-7,.8s-4.9-.3-6.7-.8c-1.8-.5-3.2-1.2-4.2-2.2-1-1-1.6-2.2-1.8-3.6-.2-1.4-.1-3.1.3-5ZM815.3,313c-.3,1.4-.4,2.6-.3,3.5,0,1,.4,1.8,1,2.4s1.4,1,2.4,1.3,2.4.4,4,.4,3-.1,4.2-.4c1.2-.3,2.2-.7,3-1.3.8-.6,1.5-1.4,2-2.3.5-1,.9-2.1,1.2-3.5.3-1.1.4-2.1.3-3,0-.9-.4-1.6-.9-2.2-.5-.6-1.3-1-2.4-1.3s-2.4-.4-4-.4c-3.2,0-5.7.6-7.3,1.7-1.6,1.1-2.7,2.8-3.2,5.1Z" fill="#043d5c"/>
    <path d="M847.7,324.4h-6.4l5-21.7h6.4l-1,4.4h.3c1.1-1.5,2.6-2.8,4.4-3.8,1.8-1,4.3-1.5,7.3-1.5s.8,0,1.3,0c.5,0,.9,0,1.2.1l-1.3,5.8c-1-.3-2.8-.4-5.3-.4s-4.6.4-6.2,1.2c-1.6.8-2.5,1.9-2.8,3.4l-2.9,12.5Z" fill="#043d5c"/>
    <path d="M891.8,324.4h-6.6l-6.1-9.6-2.1,1.4c-.8.6-1.5.9-2,.9-.6,0-1,0-1.5,0l-1.7,7.3h-6.4l6.9-29.9h6.4l-4.3,18.4,14.3-10.2h7.7l-15.4,10.7c.5,0,1,0,1.5,0s1,.1,1.5.3c.5.1.9.3,1.3.6.4.3.7.6.9.9l5.6,9.1Z" fill="#043d5c"/>
    <path d="M896,321.3c.2-1.1.7-2,1.4-2.6.7-.7,1.8-1,3.4-1s1.4,0,1.8.3c.5.2.8.4,1,.7.2.3.3.7.3,1.2s0,.9-.2,1.5c-.3,1.2-.8,2.1-1.5,2.8s-1.8,1-3.3,1-2.5-.3-2.9-1c-.4-.7-.4-1.6-.2-2.8Z" fill="#043d5c"/>
    <path d="M960,324.4h-4.9l1.4-5.9c-.9.9-1.9,1.7-2.9,2.5-1.1.8-2.2,1.5-3.4,2.1-1.2.6-2.6,1-4,1.4-1.4.3-2.9.5-4.5.5-3.1,0-5.6-.3-7.7-1-2-.6-3.6-1.6-4.8-2.9-1.1-1.3-1.8-2.9-2-4.8-.2-1.9,0-4.1.5-6.5.6-2.4,1.4-4.5,2.5-6.4,1.1-1.9,2.5-3.4,4.3-4.7,1.8-1.3,3.8-2.2,6.3-2.9,2.4-.7,5.2-1,8.4-1,5.3,0,9.2.9,11.6,2.7,2.4,1.8,3.6,4.5,3.4,8h-6.3c-.1-1.9-.9-3.4-2.4-4.5-1.5-1-3.9-1.5-7.2-1.5s-4,.2-5.5.6c-1.6.4-2.9,1-4,1.9-1.1.8-2,1.9-2.7,3.1-.7,1.2-1.2,2.7-1.6,4.3-.5,1.9-.6,3.6-.5,4.9.1,1.4.5,2.5,1.3,3.3s1.8,1.5,3.2,1.8c1.4.4,3.2.6,5.3.6s5.7-.6,7.9-1.8,4.2-2.8,5.9-4.7h-11.3l1-4.3h12.2c1.2,0,2.1.4,2.6,1.2.6.8.7,1.8.4,3.1l-2.5,10.8Z" fill="#043d5c"/>
    <path d="M972.9,324.4h-6.4l5-21.7h6.4l-1,4.4h.3c1.1-1.5,2.6-2.8,4.4-3.8,1.8-1,4.3-1.5,7.3-1.5s.8,0,1.3,0c.5,0,.9,0,1.2.1l-1.3,5.8c-1-.3-2.8-.4-5.3-.4s-4.6.4-6.2,1.2c-1.6.8-2.5,1.9-2.8,3.4l-2.9,12.5Z" fill="#043d5c"/>
    <path d="M991.7,313.4c.4-1.8,1.1-3.5,2-4.9.9-1.4,2.1-2.6,3.5-3.6,1.4-1,3.2-1.7,5.2-2.2,2-.5,4.4-.8,7-.8s4.9.3,6.6.8c1.8.5,3.1,1.2,4.1,2.2s1.6,2.2,1.8,3.6c.2,1.4.1,3.1-.3,4.9-.4,1.9-1.1,3.5-2,5-.9,1.4-2,2.6-3.5,3.6s-3.1,1.7-5.2,2.2c-2,.5-4.3.8-7,.8s-4.9-.3-6.7-.8c-1.8-.5-3.2-1.2-4.2-2.2-1-1-1.6-2.2-1.8-3.6-.2-1.4-.1-3.1.3-5ZM998.1,313c-.3,1.4-.4,2.6-.3,3.5,0,1,.4,1.8,1,2.4s1.4,1,2.4,1.3,2.4.4,4,.4,3-.1,4.2-.4c1.2-.3,2.2-.7,3-1.3.8-.6,1.5-1.4,2-2.3.5-1,.9-2.1,1.2-3.5.3-1.1.4-2.1.3-3,0-.9-.4-1.6-.9-2.2-.5-.6-1.3-1-2.4-1.3s-2.4-.4-4-.4c-3.2,0-5.7.6-7.3,1.7-1.6,1.1-2.7,2.8-3.2,5.1Z" fill="#043d5c"/>
    <path d="M1049.8,302.7h6.4l-5,21.7h-3.1c-1,0-1.7-.2-2.2-.5-.5-.4-.6-1-.4-2l.2-.9h-.3c-1.4,1.4-3,2.4-5,3.2-1.9.8-4.1,1.1-6.5,1.1s-5.6-.7-7-2c-1.4-1.4-1.8-3.6-1.1-6.7l3.2-13.8h6.4l-2.8,12.3c-.5,2-.3,3.4.5,4.3.8.9,2.3,1.4,4.6,1.4s4.6-.6,6.2-1.7c1.7-1.1,2.7-2.7,3.2-4.8l2.7-11.6Z" fill="#043d5c"/>
    <path d="M1064,324.4h-6.4l5-21.7h6.4l-.8,3.4h.3c1.4-1.3,3-2.4,5-3.1,1.9-.8,4.1-1.1,6.5-1.1s5.6.7,7,2c1.4,1.4,1.8,3.6,1.1,6.7l-3.2,13.8h-6.4l2.8-12.3c.5-2,.3-3.5-.5-4.4-.8-.9-2.3-1.4-4.6-1.4s-4.6.6-6.2,1.7c-1.7,1.1-2.7,2.7-3.2,4.8l-2.7,11.6Z" fill="#043d5c"/>
    <path d="M1112,324.4l.7-3h-.3c-1.3,1.1-2.7,2-4.4,2.6-1.7.6-3.7,1-6.2,1-3.8,0-6.5-1-8.2-3-1.7-2-2.1-4.9-1.2-8.6.9-3.9,2.6-6.7,5.2-8.7,2.5-1.9,5.8-2.9,9.7-2.9s2.4,0,3.3.3c.9.2,1.7.4,2.4.8s1.3.7,1.8,1.2c.5.5,1,1,1.4,1.5h.3l2.6-11.2h6.4l-6.9,30h-6.4ZM1114.8,312.4c.5-2.2.2-3.7-1.1-4.7-1.3-1-3.3-1.5-6.2-1.5s-2.6.1-3.6.4-1.8.7-2.5,1.3c-.7.6-1.2,1.3-1.6,2.2s-.8,2-1.1,3.2c-.3,1.2-.4,2.3-.4,3.2s.2,1.7.6,2.2c.4.6,1,1,1.9,1.3s2,.4,3.4.4c2.9,0,5.1-.5,6.8-1.4,1.7-.9,2.8-2.5,3.3-4.7l.5-1.9Z" fill="#043d5c"/>
    <path d="M1153.7,316.6c-.9,2.7-2.7,4.8-5.4,6.2-2.7,1.5-6.3,2.2-10.6,2.2s-4.5-.3-6.2-.8c-1.7-.5-3-1.3-4-2.3-1-1-1.6-2.2-1.8-3.6-.3-1.4-.2-3,.2-4.8.8-3.7,2.6-6.5,5.4-8.5,2.8-2,6.7-3,11.7-3s7.6.9,9.7,2.6c2.1,1.7,2.7,4.2,2,7.2l-.6,2.6h-22.2c-.4,1.9,0,3.4,1,4.6,1.1,1.2,3.2,1.7,6.2,1.7s4.3-.3,5.8-.8,2.6-1.6,3.2-3.3h5.5ZM1149,310.9c.2-1.4-.3-2.6-1.4-3.5-1.1-.9-2.9-1.3-5.3-1.3s-2.7.1-3.7.4-2,.7-2.7,1.1c-.7.4-1.3,1-1.8,1.5s-.7,1.1-.9,1.7h15.8Z" fill="#043d5c"/>
    <path d="M1177.7,324.4l.7-3h-.3c-1.3,1.1-2.7,2-4.4,2.6-1.7.6-3.7,1-6.2,1-3.8,0-6.5-1-8.2-3-1.7-2-2.1-4.9-1.2-8.6.9-3.9,2.6-6.7,5.2-8.7,2.5-1.9,5.8-2.9,9.7-2.9s2.4,0,3.3.3c.9.2,1.7.4,2.4.8s1.3.7,1.8,1.2c.5.5,1,1,1.4,1.5h.3l2.6-11.2h6.4l-6.9,30h-6.4ZM1180.5,312.4c.5-2.2.2-3.7-1.1-4.7-1.3-1-3.3-1.5-6.2-1.5s-2.6.1-3.6.4-1.8.7-2.5,1.3c-.7.6-1.2,1.3-1.6,2.2s-.8,2-1.1,3.2c-.3,1.2-.4,2.3-.4,3.2s.2,1.7.6,2.2c.4.6,1,1,1.9,1.3s2,.4,3.4.4c2.9,0,5.1-.5,6.8-1.4,1.7-.9,2.8-2.5,3.3-4.7l.5-1.9Z" fill="#043d5c"/>
    <path d="M1218.2,302.7l-5,21.7h-6.4l5-21.7h6.4ZM1212.8,296.5c.2-.9.6-1.6,1.3-2.2.6-.6,1.7-.9,3.2-.9s2.4.3,2.8.9c.4.6.5,1.3.3,2.2-.2,1-.6,1.8-1.3,2.3-.6.6-1.7.9-3.2.9s-2.4-.3-2.7-.9c-.4-.6-.5-1.4-.3-2.3Z" fill="#043d5c"/>
    <path d="M1226.6,324.4h-6.4l5-21.7h6.4l-.8,3.4h.3c1.4-1.3,3-2.4,5-3.1,1.9-.8,4.1-1.1,6.5-1.1s5.6.7,7,2c1.4,1.4,1.8,3.6,1.1,6.7l-3.2,13.8h-6.4l2.8-12.3c.5-2,.3-3.5-.5-4.4-.8-.9-2.3-1.4-4.6-1.4s-4.6.6-6.2,1.7c-1.7,1.1-2.7,2.7-3.2,4.8l-2.7,11.6Z" fill="#043d5c"/>
    <path d="M1306.3,295.6l-1.2,5h-12.7l-5.5,23.8h-6.6l5.5-23.8h-12.9l.2-1c.3-1.2.9-2.1,1.8-2.9s1.9-1.1,3.1-1.1h28.2Z" fill="#043d5c"/>
    <path d="M1309.3,324.4h-6.4l5-21.7h6.4l-1,4.4h.3c1.1-1.5,2.6-2.8,4.4-3.8,1.8-1,4.3-1.5,7.3-1.5s.8,0,1.3,0c.5,0,.9,0,1.2.1l-1.3,5.8c-1-.3-2.8-.4-5.3-.4s-4.6.4-6.2,1.2c-1.6.8-2.5,1.9-2.8,3.4l-2.9,12.5Z" fill="#043d5c"/>
    <path d="M1352.6,302.7h6.4l-5,21.7h-3.1c-1,0-1.7-.2-2.2-.5-.5-.4-.6-1-.4-2l.2-.9h-.3c-1.4,1.4-3,2.4-5,3.2-1.9.8-4.1,1.1-6.5,1.1s-5.6-.7-7-2c-1.4-1.4-1.8-3.6-1.1-6.7l3.2-13.8h6.4l-2.8,12.3c-.5,2-.3,3.4.5,4.3.8.9,2.3,1.4,4.6,1.4s4.6-.6,6.2-1.7c1.7-1.1,2.7-2.7,3.2-4.8l2.7-11.6Z" fill="#043d5c"/>
    <path d="M1383.3,308.8c.2-.9-.3-1.6-1.4-2.1-1.1-.5-2.7-.7-4.9-.7s-2.7,0-3.6.2c-.9.1-1.6.3-2.1.5-.5.2-.9.4-1.1.7-.2.3-.3.6-.4.9-.2.8,0,1.3.6,1.6s1.4.5,2.5.6l7.6.7c2.6.2,4.5.9,5.8,1.8s1.6,2.5,1.2,4.5c-.6,2.4-2,4.3-4.4,5.5-2.3,1.3-5.9,1.9-10.6,1.9s-4.5-.1-6.2-.4-2.9-.7-3.8-1.3c-.9-.6-1.5-1.4-1.7-2.4-.2-1-.2-2.2,0-3.6h5.7c-.3,1.2,0,2.1.9,2.7s2.6.9,5.1.9,4.6-.2,5.9-.6c1.3-.4,2.1-1.2,2.4-2.4.2-.6,0-1.1-.4-1.5-.4-.4-1.4-.6-2.8-.8l-8.5-.8c-2.6-.2-4.3-.9-5.1-2s-1.1-2.5-.7-4.3c.2-.9.6-1.7,1.2-2.5s1.5-1.5,2.6-2.1,2.5-1.1,4.2-1.4c1.7-.3,3.7-.5,6.1-.5s3.7.1,5.2.3c1.5.2,2.8.6,3.7,1.1,1,.5,1.7,1.2,2.2,2.1s.7,2,.5,3.3h-5.8Z" fill="#043d5c"/>
    <path d="M1407.3,296.5l-1.4,6.2h10.2l-1,4.3h-10.2l-2.5,10.8c-.2.8,0,1.4.6,1.8.6.4,1.6.6,3,.6s2,0,3.2-.2,2.1-.3,3-.4l-1,4.3c-.6.3-1.7.6-3.2.8-1.5.2-3.3.3-5.5.3s-4.7-.6-5.8-1.7c-1.1-1.1-1.4-2.6-1-4.3l2.8-12.2h-5.8l1.7-4.3h5.1l.6-2.6c.2-1.1.8-2,1.6-2.6.8-.7,1.8-1,2.9-1h2.7Z" fill="#043d5c"/>
    <path d="M1417.2,321.3c.2-1.1.7-2,1.4-2.6.7-.7,1.8-1,3.4-1s1.4,0,1.8.3c.5.2.8.4,1,.7.2.3.3.7.3,1.2s0,.9-.2,1.5c-.3,1.2-.8,2.1-1.5,2.8s-1.8,1-3.3,1-2.5-.3-2.9-1c-.4-.7-.4-1.6-.2-2.8Z" fill="#043d5c"/>
  </g>
  <g>
    <path d="M1290.6,216.9c-3.4,10.6-11.9,18.4-23.7,22.4l13.9,21.1h-27.9l-11.3-18.2h-31l-1.5,4.8h0c-2.3,7.6-9.1,13.4-17.3,13.4h-8s11.3-35.3,11.3-35.3h60.6c7.8,0,11.9-2.3,13.5-7.4,1.8-5.5-1-8-8.7-8,0,0-46.5,0-46.6,0-10.1,0-18.3-7.9-18.8-17.8h69.1c21.5,0,31.5,9.3,26.5,25ZM850.1,242.6l11.7-36.4s.6-2.3.6-3.5c0-5.9-4.8-10.7-10.7-10.7h0s-6.5,0-6.5,0l-21.9,68.4s60.9,0,61.1,0c10,0,18.2-7.9,18.8-17.8h0s-53,0-53,0ZM819.8,242.6s0,0,0,0h-58.2s2.9-8.9,2.9-8.9h41.8c8.6-.5,15.6-6.9,17.1-15.1h0s0,0,0,0c0,0,0,0,0,0h-36.4s0,0,0,0h-17.7l2.8-8.8s44.6,0,45,0c10.1,0,18.3-7.9,18.8-17.8h0,0s-79.3,0-79.3,0l-21.9,68.4h65.9c.1,0,.2,0,.4,0,10.1,0,18.3-7.9,18.8-17.8h0s0,0,0,0ZM991.9,242.6s0,0,0,0h-58.2s2.9-8.9,2.9-8.9h41.8c8.6-.5,15.6-6.9,17.1-15.1h0s0,0,0,0c0,0,0,0,0,0h-36.4s0,0,0,0h-17.7l2.8-8.8s44.6,0,45,0c10.1,0,18.3-7.9,18.8-17.8h0,0s-79.3,0-79.3,0l-21.9,68.4h65.9c.1,0,.2,0,.4,0,10.1,0,18.3-7.9,18.8-17.8h0s0,0,0,0ZM1096.5,209.8c-.5-9.9-8.8-17.8-18.8-17.8s-24,0-24,0c-24.1,0-45.7,13.9-52,33.5-6.4,19.9,6.4,34.9,30,34.9,0,0,34.7,0,34.8,0,10.1,0,18.3-7.9,18.8-17.8h-47.9c-12.7,0-18.1-6.3-14.7-17.1,3.3-10.3,12-15.8,25.2-15.8h48.5ZM1314.4,246.6l17.5-54.6h-7.8s0,0-.1,0h0c-7.9.2-14.6,5.3-17.2,12.4h0l-18,56h8c8.4,0,15.5-6,17.6-13.8ZM1191.1,209.8c-.5-9.9-8.8-17.8-18.8-17.8h-72.2c.5,9.5,8.1,17.8,17.5,17.8h14.7s-16.2,50.6-16.2,50.6h8.4c8,0,14.8-6,17-13.4h0l11.9-37.2h0s37.6,0,37.6,0ZM1425.1,209.8c-.5-9.9-8.8-17.8-18.8-17.8s-24,0-24,0c-24.1,0-45.7,13.9-52,33.5-6.4,19.9,6.4,34.9,30,34.9,0,0,34.7,0,34.8,0,10.1,0,18.3-7.9,18.8-17.8h-47.9c-12.7,0-18.1-6.3-14.7-17.1,3.3-10.3,12-15.8,25.2-15.8h48.5Z" fill="#043d5c"/>
    <g>
      <path d="M1425.9,192.4h5.6v1.1h-2.2v5.9h-1.2v-5.9h-2.2v-1.1Z" fill="#043d5c"/>
      <path d="M1432.4,192.4h1.7l1.9,5.5h0l1.9-5.5h1.7v7h-1.2v-5.4h0l-1.9,5.4h-1l-1.9-5.4h0v5.4h-1.2v-7Z" fill="#043d5c"/>
    </g>
    <path d="M407.1,231.1h0c-.9,16.5-14.5,29.5-31.2,29.5s-101.3,0-101.3,0l36.4-113.5h10.8c9.8,0,17.7,8,17.7,17.8s-1,5.8-1,5.8l-19.4,60.4h87.9ZM479.6,262.4c51,0,79-15.9,90.4-51.4l13.1-40.7h0c.5-1.7.8-3.5.8-5.4,0-9.8-7.9-17.7-17.6-17.8h0s-10.7,0-10.7,0l-20.5,63.9c-5.2,16.1-17,21.9-46,21.9s-37.8-5.8-32.6-21.9l12.9-40.3h0c.6-1.8,1-3.8,1-5.8,0-9.8-7.9-17.7-17.7-17.8h0s-10.8,0-10.8,0l-20.5,63.9c-11.4,35.6,6.8,51.4,58.3,51.4ZM552.1,260.6h39.4s0,0,.1,0c4.2,0,8-1.4,11.1-3.7l44.8-33.1,21.1,28.5h0c3.6,4.9,8.7,8.3,15.1,8.3s39.9,0,39.9,0l-43-58,76.5-55.5s-38.9,0-39,0c-4.1,0-7.9,1.3-10.9,3.6l-41.8,31.2-19.8-26.6c-3.5-4.7-8.7-8.2-15-8.2s-39.9,0-39.9,0l41.5,56.1-80.1,57.3Z" fill="#043d5c"/>
    <path d="M281.8,174.8l8.9-27.7h-100.1S237.9,0,237.9,0L31.4,217.8h180.1c0,0-78.2,82.6-78.2,82.6l21.6-67.5H28.1c-15.2,0-28.3,12.7-28.3,27.8h117.3s-47.1,147-47.1,147l206.1-217.5H95.8l78.5-82.9-21.6,67.5s-1.6,0,129.1,0Z" fill="#feb914"/>
    <path d="M1439.6,147.1c0,15-13.1,27.7-28.2,27.7h-664.3s38.1-27.7,38.1-27.7h654.4Z" fill="#feb914"/>
  </g>
</svg>