<?xml version="1.0" encoding="UTF-8"?>
<svg id="Layer_1" xmlns="http://www.w3.org/2000/svg" width="600" height="295" version="1.1" viewBox="0 0 600 295">
  <!-- Generator: Adobe Illustrator 29.8.4, SVG Export Plug-In . SVG Version: 2.1.1 Build 6)  -->
  <rect x="0" y="139.6" width="600" height="155" rx="77.5" ry="77.5" fill="#feb914"/>
  <g>
    <path d="M65.4,216.9h-7.9v15.7h-7.1v-40.8h14.3c2.3,0,4.4.3,6.2.8,1.8.5,3.4,1.3,4.6,2.4,1.3,1,2.2,2.3,2.9,3.9s1,3.3,1,5.3-.7,5-2,6.8c-1.3,1.8-3.2,3.3-5.5,4.2l9.2,17v.4h-7.6l-8.2-15.7ZM57.5,211.2h7.3c1.3,0,2.4-.2,3.3-.5,1-.3,1.7-.8,2.4-1.4.6-.6,1.1-1.3,1.4-2.1.3-.8.5-1.7.5-2.7s-.1-2-.4-2.8c-.3-.8-.8-1.6-1.4-2.2-.6-.6-1.4-1.1-2.4-1.4-1-.3-2.1-.5-3.5-.5h-7.3v13.7Z" fill="#043d5c"/>
    <path d="M98.9,233.2c-2.2,0-4.3-.4-6.1-1.1-1.8-.7-3.3-1.8-4.6-3.1-1.3-1.3-2.2-2.9-2.9-4.7-.7-1.8-1-3.7-1-5.8v-1.1c0-2.4.4-4.6,1.1-6.5.7-1.9,1.7-3.6,2.9-4.9,1.2-1.4,2.7-2.4,4.4-3.1,1.7-.7,3.5-1.1,5.4-1.1s4.1.4,5.7,1.1c1.6.7,3,1.8,4,3.1s1.9,2.9,2.4,4.7.8,3.8.8,6v2.9h-19.8c0,1.2.3,2.3.7,3.2.4,1,.9,1.8,1.6,2.6.7.7,1.5,1.3,2.5,1.7.9.4,2,.6,3.2.6s3.1-.3,4.4-1c1.2-.7,2.3-1.6,3.2-2.8l3.7,3.5c-.5.7-1.1,1.4-1.8,2.1-.7.7-1.6,1.3-2.5,1.8-1,.5-2.1,1-3.3,1.3-1.2.3-2.6.5-4.1.5ZM98.1,207.2c-1.9,0-3.4.7-4.5,2s-1.9,3.1-2.2,5.5h13v-.5c0-.9-.2-1.8-.4-2.6-.2-.8-.6-1.6-1.1-2.2-.5-.6-1.1-1.2-1.9-1.5-.8-.4-1.7-.6-2.8-.6Z" fill="#043d5c"/>
    <path d="M115.1,217.2c0-2.3.3-4.4.8-6.3.5-1.9,1.3-3.5,2.4-4.9,1-1.4,2.3-2.4,3.8-3.2,1.5-.7,3.2-1.1,5.1-1.1s3.3.3,4.6.9,2.5,1.5,3.4,2.6l.4-3h6.1v42h-6.8v-14.2c-1,1-2.1,1.8-3.3,2.3-1.3.5-2.7.8-4.4.8s-3.6-.4-5.1-1.2c-1.5-.8-2.7-1.8-3.8-3.2s-1.8-3-2.4-4.9-.8-3.9-.8-6.1v-.6ZM121.9,217.8c0,1.3.1,2.6.4,3.8.3,1.2.7,2.3,1.2,3.2s1.3,1.6,2.1,2.2c.9.5,1.9.8,3.2.8s2.7-.3,3.7-.9c1-.6,1.7-1.5,2.3-2.5v-13.8c-.6-1-1.4-1.8-2.4-2.4-1-.6-2.2-.9-3.6-.9s-2.3.3-3.2.8-1.6,1.3-2.2,2.2c-.6.9-1,2-1.2,3.2s-.4,2.5-.4,3.9v.6Z" fill="#043d5c"/>
    <path d="M167.3,229.7c-1,1.1-2.1,2-3.5,2.6-1.4.6-3.1.9-5,.9s-2.9-.2-4.1-.6c-1.2-.4-2.3-1.1-3.2-2-.9-.9-1.6-2.1-2-3.5-.5-1.4-.7-3.1-.7-5.1v-19.6h6.8v19.7c0,1.1.1,2,.4,2.7s.6,1.3,1.1,1.7c.4.4.9.7,1.5.9.6.2,1.2.3,1.8.3,1.8,0,3.2-.3,4.3-1,1.1-.6,1.9-1.5,2.4-2.6v-21.8h6.8v30.3h-6.4l-.2-3Z" fill="#043d5c"/>
    <path d="M194.1,233.2c-2.2,0-4.3-.4-6.1-1.1-1.8-.7-3.3-1.8-4.6-3.1-1.3-1.3-2.2-2.9-2.9-4.7-.7-1.8-1-3.7-1-5.8v-1.1c0-2.4.4-4.6,1.1-6.5.7-1.9,1.7-3.6,2.9-4.9,1.2-1.4,2.7-2.4,4.4-3.1,1.7-.7,3.5-1.1,5.4-1.1s4.1.4,5.7,1.1c1.6.7,3,1.8,4,3.1s1.9,2.9,2.4,4.7.8,3.8.8,6v2.9h-19.8c0,1.2.3,2.3.7,3.2.4,1,.9,1.8,1.6,2.6.7.7,1.5,1.3,2.5,1.7.9.4,2,.6,3.2.6s3.1-.3,4.4-1c1.2-.7,2.3-1.6,3.2-2.8l3.7,3.5c-.5.7-1.1,1.4-1.8,2.1-.7.7-1.6,1.3-2.5,1.8-1,.5-2.1,1-3.3,1.3-1.2.3-2.6.5-4.1.5ZM193.3,207.2c-1.9,0-3.4.7-4.5,2s-1.9,3.1-2.2,5.5h13v-.5c0-.9-.2-1.8-.4-2.6-.2-.8-.6-1.6-1.1-2.2-.5-.6-1.1-1.2-1.9-1.5-.8-.4-1.7-.6-2.8-.6Z" fill="#043d5c"/>
    <path d="M228.6,224.4c0-.5,0-.9-.2-1.4-.2-.4-.5-.8-.9-1.2-.5-.4-1.1-.7-2-1s-2-.6-3.3-.9c-1.6-.3-3.1-.8-4.4-1.3-1.3-.5-2.5-1.1-3.4-1.8-1-.7-1.7-1.6-2.2-2.5-.5-1-.8-2.1-.8-3.4s.3-2.4.8-3.5,1.3-2.1,2.3-2.9c1-.8,2.2-1.5,3.7-2s3.1-.7,4.9-.7,3.6.2,5.1.7c1.5.5,2.8,1.2,3.8,2s1.8,1.9,2.4,3.1.8,2.4.8,3.8h-6.8c0-.6-.1-1.1-.3-1.7-.2-.6-.6-1-1-1.5s-1-.8-1.7-1-1.4-.4-2.3-.4-1.6.1-2.2.3c-.6.2-1.2.5-1.6.8-.4.3-.7.7-.9,1.2-.2.5-.3.9-.3,1.4s0,1,.3,1.3.5.7,1,1.1c.5.3,1.1.6,1.9.9.8.3,1.8.5,3,.8,1.8.4,3.3.8,4.7,1.3,1.4.5,2.6,1.1,3.5,1.8s1.7,1.6,2.2,2.6c.5,1,.8,2.2.8,3.5s-.3,2.6-.9,3.7c-.6,1.1-1.4,2.1-2.5,2.9-1.1.8-2.4,1.4-3.9,1.9-1.5.4-3.2.7-5,.7s-3.9-.3-5.5-.9c-1.6-.6-2.9-1.4-4-2.3-1.1-1-1.9-2-2.5-3.2-.6-1.2-.8-2.4-.8-3.7h6.6c0,.9.3,1.7.6,2.4.4.6.8,1.1,1.4,1.5.6.4,1.2.7,2,.9.7.2,1.5.3,2.2.3,1.8,0,3.2-.3,4.1-1s1.4-1.6,1.4-2.7Z" fill="#043d5c"/>
    <path d="M249.7,195v7.4h5.4v5h-5.4v16.9c0,.7,0,1.3.2,1.7.1.4.4.8.6,1s.6.4,1,.5c.4,0,.8.1,1.3.1s.9,0,1.4,0,.8-.1,1-.2v5.3c-.5.1-1.2.3-1.9.4-.7.1-1.6.2-2.6.2s-2.2-.2-3.1-.4c-1-.3-1.8-.8-2.5-1.5-.7-.7-1.2-1.5-1.6-2.6-.4-1.1-.6-2.4-.6-4v-17.3h-5v-5h5v-7.4h6.8Z" fill="#043d5c"/>
    <path d="M298.7,215.3h-16.4v17.3h-7.1v-40.8h25.9v5.7h-18.8v12.1h16.4v5.7Z" fill="#043d5c"/>
    <path d="M321.2,208.5c-.4,0-.9-.1-1.4-.2-.5,0-.9,0-1.4,0-1.6,0-3,.3-4,1-1,.6-1.8,1.5-2.3,2.6v20.7h-6.8v-30.3h6.5l.2,3.4c.8-1.2,1.7-2.2,2.8-2.9,1.1-.7,2.5-1.1,4-1.1s.8,0,1.3.1.9.2,1.1.3v6.4Z" fill="#043d5c"/>
    <path d="M338.3,233.2c-2.2,0-4.3-.4-6.1-1.1-1.8-.7-3.3-1.8-4.6-3.1-1.3-1.3-2.2-2.9-2.9-4.7-.7-1.8-1-3.7-1-5.8v-1.1c0-2.4.4-4.6,1.1-6.5.7-1.9,1.7-3.6,2.9-4.9,1.2-1.4,2.7-2.4,4.4-3.1,1.7-.7,3.5-1.1,5.4-1.1s4.1.4,5.7,1.1c1.6.7,3,1.8,4,3.1s1.9,2.9,2.4,4.7.8,3.8.8,6v2.9h-19.8c0,1.2.3,2.3.7,3.2.4,1,.9,1.8,1.6,2.6.7.7,1.5,1.3,2.5,1.7.9.4,2,.6,3.2.6s3.1-.3,4.4-1c1.2-.7,2.3-1.6,3.2-2.8l3.7,3.5c-.5.7-1.1,1.4-1.8,2.1-.7.7-1.6,1.3-2.5,1.8-1,.5-2.1,1-3.3,1.3-1.2.3-2.6.5-4.1.5ZM337.5,207.2c-1.9,0-3.4.7-4.5,2s-1.9,3.1-2.2,5.5h13v-.5c0-.9-.2-1.8-.4-2.6-.2-.8-.6-1.6-1.1-2.2-.5-.6-1.1-1.2-1.9-1.5-.8-.4-1.7-.6-2.8-.6Z" fill="#043d5c"/>
    <path d="M369.1,233.2c-2.2,0-4.3-.4-6.1-1.1-1.8-.7-3.3-1.8-4.6-3.1-1.3-1.3-2.2-2.9-2.9-4.7-.7-1.8-1-3.7-1-5.8v-1.1c0-2.4.4-4.6,1.1-6.5.7-1.9,1.7-3.6,2.9-4.9,1.2-1.4,2.7-2.4,4.4-3.1,1.7-.7,3.5-1.1,5.4-1.1s4.1.4,5.7,1.1c1.6.7,3,1.8,4,3.1s1.9,2.9,2.4,4.7.8,3.8.8,6v2.9h-19.8c0,1.2.3,2.3.7,3.2.4,1,.9,1.8,1.6,2.6.7.7,1.5,1.3,2.5,1.7.9.4,2,.6,3.2.6s3.1-.3,4.4-1c1.2-.7,2.3-1.6,3.2-2.8l3.7,3.5c-.5.7-1.1,1.4-1.8,2.1-.7.7-1.6,1.3-2.5,1.8-1,.5-2.1,1-3.3,1.3-1.2.3-2.6.5-4.1.5ZM368.3,207.2c-1.9,0-3.4.7-4.5,2s-1.9,3.1-2.2,5.5h13v-.5c0-.9-.2-1.8-.4-2.6-.2-.8-.6-1.6-1.1-2.2-.5-.6-1.1-1.2-1.9-1.5-.8-.4-1.7-.6-2.8-.6Z" fill="#043d5c"/>
    <path d="M433.9,213.3c0,3.9-.6,7.2-1.8,10-1.2,2.8-2.9,5.1-5.1,6.7l7,5.5-4.6,4.1-8.7-6.9c-1.1.2-2.4.4-3.7.4-2.5,0-4.8-.5-6.8-1.4s-3.9-2.2-5.4-3.9c-1.5-1.7-2.7-3.8-3.5-6.2-.8-2.5-1.2-5.2-1.2-8.3v-2.1c0-3.1.4-5.9,1.2-8.3.8-2.5,2-4.6,3.5-6.3,1.5-1.7,3.3-3,5.3-4s4.4-1.4,6.8-1.4,4.9.5,6.9,1.4,3.9,2.2,5.4,4c1.5,1.7,2.6,3.8,3.4,6.3.8,2.5,1.2,5.2,1.2,8.3v2.1ZM426.8,211.2c0-4.6-.9-8.1-2.6-10.4s-4.1-3.6-7.3-3.6-2.9.3-4.1.9c-1.2.6-2.2,1.5-3.1,2.7-.9,1.2-1.5,2.6-2,4.4-.5,1.7-.7,3.8-.7,6v2.1c0,2.3.2,4.3.7,6.1.5,1.8,1.1,3.2,2,4.4.8,1.2,1.9,2.1,3.1,2.7,1.2.6,2.6.9,4.1.9,3.2,0,5.6-1.2,7.3-3.6s2.5-5.9,2.5-10.5v-2.1Z" fill="#043d5c"/>
    <path d="M458.8,229.7c-1,1.1-2.1,2-3.5,2.6-1.4.6-3.1.9-5,.9s-2.9-.2-4.1-.6c-1.2-.4-2.3-1.1-3.2-2-.9-.9-1.6-2.1-2-3.5-.5-1.4-.7-3.1-.7-5.1v-19.6h6.8v19.7c0,1.1.1,2,.4,2.7s.6,1.3,1.1,1.7c.4.4.9.7,1.5.9.6.2,1.2.3,1.8.3,1.8,0,3.2-.3,4.3-1,1.1-.6,1.9-1.5,2.4-2.6v-21.8h6.8v30.3h-6.4l-.2-3Z" fill="#043d5c"/>
    <path d="M471.1,217.2c0-2.2.3-4.2,1-6.1s1.6-3.5,2.8-4.9c1.2-1.4,2.7-2.5,4.4-3.2,1.7-.8,3.7-1.2,5.9-1.2s4.2.4,6,1.2c1.8.8,3.2,1.9,4.4,3.2,1.2,1.4,2.1,3,2.8,4.9s1,3.9,1,6.1v.6c0,2.2-.3,4.2-1,6.1-.6,1.9-1.6,3.5-2.8,4.9-1.2,1.4-2.7,2.4-4.4,3.2-1.7.8-3.7,1.2-5.9,1.2s-4.2-.4-6-1.2c-1.7-.8-3.2-1.8-4.4-3.2-1.2-1.4-2.1-3-2.8-4.9-.6-1.9-1-3.9-1-6.1v-.6ZM477.9,217.8c0,1.4.1,2.7.4,3.9s.7,2.3,1.3,3.2c.6.9,1.4,1.6,2.3,2.1.9.5,2,.8,3.3.8s2.3-.3,3.3-.8c.9-.5,1.7-1.2,2.3-2.1.6-.9,1-2,1.3-3.2.3-1.2.4-2.5.4-3.9v-.6c0-1.3-.1-2.6-.4-3.8-.3-1.2-.7-2.3-1.3-3.2s-1.4-1.6-2.3-2.2c-.9-.5-2-.8-3.3-.8s-2.4.3-3.3.8c-.9.5-1.7,1.3-2.3,2.2s-1,2-1.3,3.2c-.3,1.2-.4,2.5-.4,3.8v.6Z" fill="#043d5c"/>
    <path d="M513.5,195v7.4h5.4v5h-5.4v16.9c0,.7,0,1.3.2,1.7.1.4.4.8.6,1s.6.4,1,.5c.4,0,.8.1,1.3.1s.9,0,1.4,0,.8-.1,1-.2v5.3c-.5.1-1.2.3-1.9.4-.7.1-1.6.2-2.6.2s-2.2-.2-3.1-.4c-1-.3-1.8-.8-2.5-1.5-.7-.7-1.2-1.5-1.6-2.6-.4-1.1-.6-2.4-.6-4v-17.3h-5v-5h5v-7.4h6.8Z" fill="#043d5c"/>
    <path d="M537.4,233.2c-2.2,0-4.3-.4-6.1-1.1-1.8-.7-3.3-1.8-4.6-3.1-1.3-1.3-2.2-2.9-2.9-4.7-.7-1.8-1-3.7-1-5.8v-1.1c0-2.4.4-4.6,1.1-6.5.7-1.9,1.7-3.6,2.9-4.9,1.2-1.4,2.7-2.4,4.4-3.1,1.7-.7,3.5-1.1,5.4-1.1s4.1.4,5.7,1.1c1.6.7,3,1.8,4,3.1s1.9,2.9,2.4,4.7.8,3.8.8,6v2.9h-19.8c0,1.2.3,2.3.7,3.2.4,1,.9,1.8,1.6,2.6.7.7,1.5,1.3,2.5,1.7.9.4,2,.6,3.2.6s3.1-.3,4.4-1c1.2-.7,2.3-1.6,3.2-2.8l3.7,3.5c-.5.7-1.1,1.4-1.8,2.1-.7.7-1.6,1.3-2.5,1.8-1,.5-2.1,1-3.3,1.3-1.2.3-2.6.5-4.1.5ZM536.6,207.2c-1.9,0-3.4.7-4.5,2s-1.9,3.1-2.2,5.5h13v-.5c0-.9-.2-1.8-.4-2.6-.2-.8-.6-1.6-1.1-2.2-.5-.6-1.1-1.2-1.9-1.5-.8-.4-1.7-.6-2.8-.6Z" fill="#043d5c"/>
  </g>
  <circle cx="300" cy="85.5" r="85.1" fill="#fff"/>
  <g>
    <g>
      <rect x="259.6" y="38.8" width="57.8" height="81.1" rx="7" ry="7" fill="#fff"/>
      <path d="M255.6,112.9V45.8c0-6.1,4.9-11,11-11h43.8c6.1,0,11,4.9,11,11v67.1c0,6.1-4.9,11-11,11h-43.8c-6.1,0-11-4.9-11-11ZM317.4,45.8c0-3.9-3.1-7-7-7h-43.8c-3.9,0-7,3.1-7,7v67.1c0,3.9,3.1,7,7,7h43.8c3.9,0,7-3.1,7-7V45.8Z" fill="#043d5c"/>
      <path d="M263.8,50.7c0-1.6.6-3,1.7-4.1,1.1-1.1,2.6-1.7,4.1-1.7h37.6c1.6-.1,3,.5,4.1,1.6,1.1,1.1,1.7,2.6,1.7,4.1v3.5h0c0,1.6-.6,3-1.7,4.1-1.1,1.1-2.6,1.7-4.1,1.7h-37.6c-1.6.1-3-.5-4.1-1.6-1.1-1.1-1.7-2.6-1.7-4.1v-3.5c0,0,0,0,0,0ZM309.1,54.1v-3.5c0-.5-.3-1-.6-1.3-.3-.3-.8-.5-1.2-.5h-37.6c-.5.1-.9.3-1.2.7-.3.4-.5.8-.5,1.3h0s0,3.5,0,3.5c0,.5.2,1,.5,1.3.3.3.8.5,1.2.5h37.6c.5-.1.9-.3,1.2-.7.3-.4.5-.8.5-1.3h0Z" fill="#043d5c"/>
      <g>
        <path d="M306,112.9h-5.4c-1.1,0-2-.9-2-2s.9-2,2-2h5.4c1.1,0,2,.9,2,2s-.9,2-2,2Z" fill="#043d5c"/>
        <path d="M291.2,112.9h-5.4c-1.1,0-2-.9-2-2s.9-2,2-2h5.4c1.1,0,2,.9,2,2s-.9,2-2,2Z" fill="#043d5c"/>
        <path d="M276.4,112.9h-5.4c-1.1,0-2-.9-2-2s.9-2,2-2h5.4c1.1,0,2,.9,2,2s-.9,2-2,2Z" fill="#043d5c"/>
        <path d="M306,103.2h-5.4c-1.1,0-2-.9-2-2s.9-2,2-2h5.4c1.1,0,2,.9,2,2s-.9,2-2,2Z" fill="#043d5c"/>
        <path d="M291.2,103.2h-5.4c-1.1,0-2-.9-2-2s.9-2,2-2h5.4c1.1,0,2,.9,2,2s-.9,2-2,2Z" fill="#043d5c"/>
        <path d="M276.4,103.2h-5.4c-1.1,0-2-.9-2-2s.9-2,2-2h5.4c1.1,0,2,.9,2,2s-.9,2-2,2Z" fill="#043d5c"/>
        <path d="M306,93.4h-5.4c-1.1,0-2-.9-2-2s.9-2,2-2h5.4c1.1,0,2,.9,2,2s-.9,2-2,2Z" fill="#043d5c"/>
        <path d="M291.2,93.4h-5.4c-1.1,0-2-.9-2-2s.9-2,2-2h5.4c1.1,0,2,.9,2,2s-.9,2-2,2Z" fill="#043d5c"/>
        <path d="M276.4,93.4h-5.4c-1.1,0-2-.9-2-2s.9-2,2-2h5.4c1.1,0,2,.9,2,2s-.9,2-2,2Z" fill="#043d5c"/>
        <path d="M306,83.7h-5.4c-1.1,0-2-.9-2-2s.9-2,2-2h5.4c1.1,0,2,.9,2,2s-.9,2-2,2Z" fill="#043d5c"/>
        <path d="M291.2,83.7h-5.4c-1.1,0-2-.9-2-2s.9-2,2-2h5.4c1.1,0,2,.9,2,2s-.9,2-2,2Z" fill="#043d5c"/>
        <path d="M276.4,83.7h-5.4c-1.1,0-2-.9-2-2s.9-2,2-2h5.4c1.1,0,2,.9,2,2s-.9,2-2,2Z" fill="#043d5c"/>
        <path d="M306,73.9h-5.4c-1.1,0-2-.9-2-2s.9-2,2-2h5.4c1.1,0,2,.9,2,2s-.9,2-2,2Z" fill="#043d5c"/>
        <path d="M291.2,73.9h-5.4c-1.1,0-2-.9-2-2s.9-2,2-2h5.4c1.1,0,2,.9,2,2s-.9,2-2,2Z" fill="#043d5c"/>
        <path d="M276.4,73.9h-5.4c-1.1,0-2-.9-2-2s.9-2,2-2h5.4c1.1,0,2,.9,2,2s-.9,2-2,2Z" fill="#043d5c"/>
      </g>
    </g>
    <g>
      <path d="M317.8,86.9c-12.5,0-22.6,10.1-22.6,22.6s10.1,22.6,22.6,22.6,22.6-10.1,22.6-22.6-10.1-22.6-22.6-22.6Z" fill="#fff"/>
      <g>
        <g>
          <path d="M317.6,122c-2.8,0-5.9-1-8.4-4.3-.7-.9-.5-2.1.4-2.8.9-.7,2.1-.5,2.8.4,3.5,4.6,8.4,2,8.6,1.9,0,0,.1,0,.2,0,.3-.1,1.7-.9,1.5-3-.2-2.3-2.3-3.1-2.6-3.1,0,0-3-.9-5.9-1.8-4.4-1.3-5.3-4.4-5.3-6.8,0-2,.8-3.7,2.2-4.9,1.6-1.4,3.9-2.1,6.9-2,5.5,0,8.1,4,8.7,6.1.3,1.1-.3,2.2-1.4,2.5-1.1.3-2.2-.3-2.5-1.4-.1-.3-1.1-3.1-4.9-3.2-2,0-3.4.3-4.2,1-.5.5-.8,1.1-.8,1.9,0,1.3.4,2.3,2.4,2.9,2.9.9,5.9,1.8,5.9,1.8,1.8.5,5.1,2.5,5.4,6.6.4,4.1-2.3,6.4-3.9,7.1-1.2.6-3.1,1.2-5.2,1.2Z" fill="#043d5c"/>
          <path d="M318,99.5c-1.1,0-2-.9-2-2v-4.7c0-1.1.9-2,2-2s2,.9,2,2v4.7c0,1.1-.9,2-2,2Z" fill="#043d5c"/>
          <path d="M318,127c-1.1,0-2-.9-2-2v-4.7c0-1.1.9-2,2-2s2,.9,2,2v4.7c0,1.1-.9,2-2,2Z" fill="#043d5c"/>
        </g>
        <path d="M317.8,136.1c-14.7,0-26.6-11.9-26.6-26.6s11.9-26.6,26.6-26.6,26.6,11.9,26.6,26.6-11.9,26.6-26.6,26.6ZM317.8,86.9c-12.5,0-22.6,10.1-22.6,22.6s10.1,22.6,22.6,22.6,22.6-10.1,22.6-22.6-10.1-22.6-22.6-22.6Z" fill="#043d5c"/>
      </g>
    </g>
  </g>
</svg>